STARTFONT 2.1
FONT -Adobe-Courier-Medium-R-Normal--14-100-100-100-M-90-ISO10646-1
SIZE 10 100 100
FONTBOUNDINGBOX 14 20 -3 -5
COMMENT ISO10646-1 extension by Markus Kuhn <mkuhn@acm.org>, 2001-03-20
COMMENT 
COMMENT +
COMMENT  Copyright 1984-1989, 1994 Adobe Systems Incorporated.
COMMENT  Copyright 1988, 1994 Digital Equipment Corporation.
COMMENT
COMMENT  Adobe is a trademark of Adobe Systems Incorporated which may be
COMMENT  registered in certain jurisdictions.
COMMENT  Permission to use these trademarks is hereby granted only in
COMMENT  association with the images described in this file.
COMMENT
COMMENT  Permission to use, copy, modify, distribute and sell this software
COMMENT  and its documentation for any purpose and without fee is hereby
COMMENT  granted, provided that the above copyright notices appear in all
COMMENT  copies and that both those copyright notices and this permission
COMMENT  notice appear in supporting documentation, and that the names of
COMMENT  Adobe Systems and Digital Equipment Corporation not be used in
COMMENT  advertising or publicity pertaining to distribution of the software
COMMENT  without specific, written prior permission.  Adobe Systems and
COMMENT  Digital Equipment Corporation make no representations about the
COMMENT  suitability of this software for any purpose.  It is provided "as
COMMENT  is" without express or implied warranty.
COMMENT -
STARTPROPERTIES 26
FOUNDRY "Adobe"
FAMILY_NAME "Courier"
WEIGHT_NAME "Medium"
SLANT "R"
SETWIDTH_NAME "Normal"
ADD_STYLE_NAME ""
PIXEL_SIZE 14
POINT_SIZE 100
RESOLUTION_X 100
RESOLUTION_Y 100
SPACING "M"
AVERAGE_WIDTH 90
CHARSET_REGISTRY "ISO10646"
CHARSET_ENCODING "1"
CAP_HEIGHT 9
X_HEIGHT 7
FONT_ASCENT 11
FONT_DESCENT 3
FACE_NAME "Courier"
COPYRIGHT "Copyright (c) 1984, 1987 Adobe Systems Incorporated. All Rights Reserved. Copyright (c) 1988, 1991 Digital Equipment Corporation. All Rights Reserved."
NOTICE "No mark"
_DEC_DEVICE_FONTNAMES "PS=Courier"
DEFAULT_CHAR 0

STARTCHAR char0
ENCODING 0
SWIDTH 600 0
DWIDTH 9 0
BBX 7 9 0 0
BITMAP
AA
00
82
00
82
00
82
00
AA
ENDCHAR
STARTCHAR space
ENCODING 32
SWIDTH 600 0
DWIDTH 9 0
BBX 1 1 0 0
BITMAP
00
ENDCHAR
STARTCHAR exclam
ENCODING 33
SWIDTH 600 0
DWIDTH 9 0
BBX 1 9 3 0
BITMAP
80
80
80
80
80
80
00
80
80
ENDCHAR
STARTCHAR quotedbl
ENCODING 34
SWIDTH 600 0
DWIDTH 9 0
BBX 4 4 2 6
BITMAP
90
90
90
90
ENDCHAR
STARTCHAR numbersign
ENCODING 35
SWIDTH 600 0
DWIDTH 9 0
BBX 5 10 2 -1
BITMAP
50
50
50
F8
50
50
F8
50
50
50
ENDCHAR
STARTCHAR dollar
ENCODING 36
SWIDTH 600 0
DWIDTH 9 0
BBX 5 13 2 -2
BITMAP
20
20
78
88
80
C0
30
08
88
F0
20
20
20
ENDCHAR
STARTCHAR percent
ENCODING 37
SWIDTH 600 0
DWIDTH 9 0
BBX 8 10 0 0
BITMAP
60
90
90
73
0C
30
CC
12
12
0C
ENDCHAR
STARTCHAR ampersand
ENCODING 38
SWIDTH 600 0
DWIDTH 9 0
BBX 6 8 1 0
BITMAP
38
40
40
40
A8
90
98
64
ENDCHAR
STARTCHAR quotesingle
ENCODING 39
SWIDTH 600 0
DWIDTH 9 0
BBX 1 4 3 5
BITMAP
80
80
80
80
ENDCHAR
STARTCHAR parenleft
ENCODING 40
SWIDTH 600 0
DWIDTH 9 0
BBX 3 12 3 -2
BITMAP
20
40
40
80
80
80
80
80
80
40
40
20
ENDCHAR
STARTCHAR parenright
ENCODING 41
SWIDTH 600 0
DWIDTH 9 0
BBX 3 12 2 -2
BITMAP
80
40
40
20
20
20
20
20
20
40
40
80
ENDCHAR
STARTCHAR asterisk
ENCODING 42
SWIDTH 600 0
DWIDTH 9 0
BBX 5 6 1 3
BITMAP
20
20
F8
20
50
88
ENDCHAR
STARTCHAR plus
ENCODING 43
SWIDTH 600 0
DWIDTH 9 0
BBX 7 7 1 1
BITMAP
10
10
10
FE
10
10
10
ENDCHAR
STARTCHAR comma
ENCODING 44
SWIDTH 600 0
DWIDTH 9 0
BBX 3 4 2 -2
BITMAP
60
60
C0
80
ENDCHAR
STARTCHAR hyphen
ENCODING 45
SWIDTH 600 0
DWIDTH 9 0
BBX 6 1 1 4
BITMAP
FC
ENDCHAR
STARTCHAR period
ENCODING 46
SWIDTH 600 0
DWIDTH 9 0
BBX 2 2 3 0
BITMAP
C0
C0
ENDCHAR
STARTCHAR slash
ENCODING 47
SWIDTH 600 0
DWIDTH 9 0
BBX 6 11 1 -1
BITMAP
04
08
08
10
10
20
20
40
40
80
80
ENDCHAR
STARTCHAR zero
ENCODING 48
SWIDTH 600 0
DWIDTH 9 0
BBX 6 10 1 0
BITMAP
30
48
84
84
84
84
84
84
48
30
ENDCHAR
STARTCHAR one
ENCODING 49
SWIDTH 600 0
DWIDTH 9 0
BBX 5 10 1 0
BITMAP
20
60
A0
20
20
20
20
20
20
F8
ENDCHAR
STARTCHAR two
ENCODING 50
SWIDTH 600 0
DWIDTH 9 0
BBX 5 10 1 0
BITMAP
70
88
88
08
10
20
40
80
88
F8
ENDCHAR
STARTCHAR three
ENCODING 51
SWIDTH 600 0
DWIDTH 9 0
BBX 6 10 1 0
BITMAP
38
44
04
04
18
04
04
04
84
78
ENDCHAR
STARTCHAR four
ENCODING 52
SWIDTH 600 0
DWIDTH 9 0
BBX 6 10 1 0
BITMAP
18
28
28
48
48
88
88
FC
08
1C
ENDCHAR
STARTCHAR five
ENCODING 53
SWIDTH 600 0
DWIDTH 9 0
BBX 6 10 1 0
BITMAP
7C
40
40
40
78
04
04
04
84
78
ENDCHAR
STARTCHAR six
ENCODING 54
SWIDTH 600 0
DWIDTH 9 0
BBX 6 10 1 0
BITMAP
38
40
80
80
B8
C4
84
84
44
38
ENDCHAR
STARTCHAR seven
ENCODING 55
SWIDTH 600 0
DWIDTH 9 0
BBX 6 10 1 0
BITMAP
FC
84
04
08
08
08
10
10
10
10
ENDCHAR
STARTCHAR eight
ENCODING 56
SWIDTH 600 0
DWIDTH 9 0
BBX 5 10 2 0
BITMAP
70
88
88
88
70
88
88
88
88
70
ENDCHAR
STARTCHAR nine
ENCODING 57
SWIDTH 600 0
DWIDTH 9 0
BBX 6 10 1 0
BITMAP
70
88
84
84
8C
74
04
04
08
70
ENDCHAR
STARTCHAR colon
ENCODING 58
SWIDTH 600 0
DWIDTH 9 0
BBX 2 7 3 0
BITMAP
C0
C0
00
00
00
C0
C0
ENDCHAR
STARTCHAR semicolon
ENCODING 59
SWIDTH 600 0
DWIDTH 9 0
BBX 3 9 2 -2
BITMAP
60
60
00
00
00
60
60
C0
80
ENDCHAR
STARTCHAR less
ENCODING 60
SWIDTH 600 0
DWIDTH 9 0
BBX 7 7 0 1
BITMAP
06
18
60
80
60
18
06
ENDCHAR
STARTCHAR equal
ENCODING 61
SWIDTH 600 0
DWIDTH 9 0
BBX 7 3 1 3
BITMAP
FE
00
FE
ENDCHAR
STARTCHAR greater
ENCODING 62
SWIDTH 600 0
DWIDTH 9 0
BBX 7 7 1 1
BITMAP
C0
30
0C
02
0C
30
C0
ENDCHAR
STARTCHAR question
ENCODING 63
SWIDTH 600 0
DWIDTH 9 0
BBX 5 9 1 0
BITMAP
70
88
08
08
30
20
00
20
20
ENDCHAR
STARTCHAR at
ENCODING 64
SWIDTH 600 0
DWIDTH 9 0
BBX 7 10 1 -1
BITMAP
38
44
84
9C
A4
A4
9E
80
40
38
ENDCHAR
STARTCHAR A
ENCODING 65
SWIDTH 600 0
DWIDTH 9 0
BBX 9 9 -1 0
BITMAP
3800
0800
1400
1400
2200
3E00
4100
4100
F780
ENDCHAR
STARTCHAR B
ENCODING 66
SWIDTH 600 0
DWIDTH 9 0
BBX 7 9 0 0
BITMAP
FC
42
42
42
7C
42
42
42
FC
ENDCHAR
STARTCHAR C
ENCODING 67
SWIDTH 600 0
DWIDTH 9 0
BBX 7 9 1 0
BITMAP
3A
46
82
80
80
80
80
42
3C
ENDCHAR
STARTCHAR D
ENCODING 68
SWIDTH 600 0
DWIDTH 9 0
BBX 8 9 0 0
BITMAP
FC
42
41
41
41
41
41
42
FC
ENDCHAR
STARTCHAR E
ENCODING 69
SWIDTH 600 0
DWIDTH 9 0
BBX 7 9 1 0
BITMAP
FE
42
42
48
78
48
42
42
FE
ENDCHAR
STARTCHAR F
ENCODING 70
SWIDTH 600 0
DWIDTH 9 0
BBX 7 9 1 0
BITMAP
FE
42
42
48
78
48
40
40
F0
ENDCHAR
STARTCHAR G
ENCODING 71
SWIDTH 600 0
DWIDTH 9 0
BBX 8 9 0 0
BITMAP
3A
46
82
80
80
8F
82
42
3C
ENDCHAR
STARTCHAR H
ENCODING 72
SWIDTH 600 0
DWIDTH 9 0
BBX 8 9 0 0
BITMAP
E7
42
42
42
7E
42
42
42
E7
ENDCHAR
STARTCHAR I
ENCODING 73
SWIDTH 600 0
DWIDTH 9 0
BBX 5 9 2 0
BITMAP
F8
20
20
20
20
20
20
20
F8
ENDCHAR
STARTCHAR J
ENCODING 74
SWIDTH 600 0
DWIDTH 9 0
BBX 7 9 1 0
BITMAP
3E
08
08
08
08
88
88
88
70
ENDCHAR
STARTCHAR K
ENCODING 75
SWIDTH 600 0
DWIDTH 9 0
BBX 8 9 0 0
BITMAP
EE
44
48
50
70
48
44
44
E3
ENDCHAR
STARTCHAR L
ENCODING 76
SWIDTH 600 0
DWIDTH 9 0
BBX 8 9 0 0
BITMAP
F8
20
20
20
20
21
21
21
FF
ENDCHAR
STARTCHAR M
ENCODING 77
SWIDTH 600 0
DWIDTH 9 0
BBX 9 9 0 0
BITMAP
E380
6300
5500
5500
4900
4900
4100
4100
E380
ENDCHAR
STARTCHAR N
ENCODING 78
SWIDTH 600 0
DWIDTH 9 0
BBX 8 9 0 0
BITMAP
E7
62
52
52
4A
4A
46
46
E2
ENDCHAR
STARTCHAR O
ENCODING 79
SWIDTH 600 0
DWIDTH 9 0
BBX 8 9 0 0
BITMAP
3C
42
81
81
81
81
81
42
3C
ENDCHAR
STARTCHAR P
ENCODING 80
SWIDTH 600 0
DWIDTH 9 0
BBX 7 9 1 0
BITMAP
FC
42
42
42
42
7C
40
40
F0
ENDCHAR
STARTCHAR Q
ENCODING 81
SWIDTH 600 0
DWIDTH 9 0
BBX 8 11 0 -2
BITMAP
3C
42
81
81
81
81
81
42
3C
31
5E
ENDCHAR
STARTCHAR R
ENCODING 82
SWIDTH 600 0
DWIDTH 9 0
BBX 8 9 0 0
BITMAP
FC
42
42
42
44
78
44
42
E1
ENDCHAR
STARTCHAR S
ENCODING 83
SWIDTH 600 0
DWIDTH 9 0
BBX 6 9 1 0
BITMAP
74
8C
84
80
78
04
84
C4
B8
ENDCHAR
STARTCHAR T
ENCODING 84
SWIDTH 600 0
DWIDTH 9 0
BBX 7 9 1 0
BITMAP
FE
92
92
10
10
10
10
10
7C
ENDCHAR
STARTCHAR U
ENCODING 85
SWIDTH 600 0
DWIDTH 9 0
BBX 8 9 0 0
BITMAP
E7
42
42
42
42
42
42
42
3C
ENDCHAR
STARTCHAR V
ENCODING 86
SWIDTH 600 0
DWIDTH 9 0
BBX 9 9 0 0
BITMAP
E380
4100
4100
2200
2200
1400
1400
0800
0800
ENDCHAR
STARTCHAR W
ENCODING 87
SWIDTH 600 0
DWIDTH 9 0
BBX 9 9 0 0
BITMAP
E380
4100
4900
4900
5500
5500
2200
2200
2200
ENDCHAR
STARTCHAR X
ENCODING 88
SWIDTH 600 0
DWIDTH 9 0
BBX 8 9 0 0
BITMAP
E7
42
24
24
18
24
24
42
E7
ENDCHAR
STARTCHAR Y
ENCODING 89
SWIDTH 600 0
DWIDTH 9 0
BBX 7 9 0 0
BITMAP
EE
44
44
28
28
10
10
10
7C
ENDCHAR
STARTCHAR Z
ENCODING 90
SWIDTH 600 0
DWIDTH 9 0
BBX 6 9 1 0
BITMAP
FC
84
88
10
20
20
44
84
FC
ENDCHAR
STARTCHAR bracketleft
ENCODING 91
SWIDTH 600 0
DWIDTH 9 0
BBX 3 12 3 -2
BITMAP
E0
80
80
80
80
80
80
80
80
80
80
E0
ENDCHAR
STARTCHAR backslash
ENCODING 92
SWIDTH 600 0
DWIDTH 9 0
BBX 6 11 1 -1
BITMAP
80
40
40
20
20
10
10
08
08
04
04
ENDCHAR
STARTCHAR bracketright
ENCODING 93
SWIDTH 600 0
DWIDTH 9 0
BBX 3 12 2 -2
BITMAP
E0
20
20
20
20
20
20
20
20
20
20
E0
ENDCHAR
STARTCHAR asciicircum
ENCODING 94
SWIDTH 600 0
DWIDTH 9 0
BBX 5 5 2 4
BITMAP
20
50
50
88
88
ENDCHAR
STARTCHAR underscore
ENCODING 95
SWIDTH 600 0
DWIDTH 9 0
BBX 9 1 0 -3
BITMAP
FF80
ENDCHAR
STARTCHAR grave
ENCODING 96
SWIDTH 600 0
DWIDTH 9 0
BBX 4 2 2 8
BITMAP
C0
30
ENDCHAR
STARTCHAR a
ENCODING 97
SWIDTH 600 0
DWIDTH 9 0
BBX 7 7 1 0
BITMAP
78
84
04
7C
84
84
7A
ENDCHAR
STARTCHAR b
ENCODING 98
SWIDTH 600 0
DWIDTH 9 0
BBX 8 10 0 0
BITMAP
C0
40
40
5C
62
41
41
41
62
DC
ENDCHAR
STARTCHAR c
ENCODING 99
SWIDTH 600 0
DWIDTH 9 0
BBX 7 7 1 0
BITMAP
3A
46
82
80
80
42
3C
ENDCHAR
STARTCHAR d
ENCODING 100
SWIDTH 600 0
DWIDTH 9 0
BBX 8 10 0 0
BITMAP
06
02
02
3A
46
82
82
82
46
3B
ENDCHAR
STARTCHAR e
ENCODING 101
SWIDTH 600 0
DWIDTH 9 0
BBX 7 7 1 0
BITMAP
38
44
82
FE
80
42
3C
ENDCHAR
STARTCHAR f
ENCODING 102
SWIDTH 600 0
DWIDTH 9 0
BBX 7 10 1 0
BITMAP
1E
20
20
FC
20
20
20
20
20
F8
ENDCHAR
STARTCHAR g
ENCODING 103
SWIDTH 600 0
DWIDTH 9 0
BBX 8 10 0 -3
BITMAP
3B
46
82
82
82
46
3A
02
04
78
ENDCHAR
STARTCHAR h
ENCODING 104
SWIDTH 600 0
DWIDTH 9 0
BBX 8 10 0 0
BITMAP
C0
40
40
5C
62
42
42
42
42
E7
ENDCHAR
STARTCHAR i
ENCODING 105
SWIDTH 600 0
DWIDTH 9 0
BBX 5 10 2 0
BITMAP
20
20
00
E0
20
20
20
20
20
F8
ENDCHAR
STARTCHAR j
ENCODING 106
SWIDTH 600 0
DWIDTH 9 0
BBX 5 13 1 -3
BITMAP
08
08
00
F8
08
08
08
08
08
08
08
10
E0
ENDCHAR
STARTCHAR k
ENCODING 107
SWIDTH 600 0
DWIDTH 9 0
BBX 7 10 1 0
BITMAP
C0
40
40
4E
48
50
60
50
48
CE
ENDCHAR
STARTCHAR l
ENCODING 108
SWIDTH 600 0
DWIDTH 9 0
BBX 5 10 2 0
BITMAP
E0
20
20
20
20
20
20
20
20
F8
ENDCHAR
STARTCHAR m
ENCODING 109
SWIDTH 600 0
DWIDTH 9 0
BBX 9 7 0 0
BITMAP
DB00
6D00
4900
4900
4900
4900
ED80
ENDCHAR
STARTCHAR n
ENCODING 110
SWIDTH 600 0
DWIDTH 9 0
BBX 8 7 0 0
BITMAP
DC
62
42
42
42
42
E7
ENDCHAR
STARTCHAR o
ENCODING 111
SWIDTH 600 0
DWIDTH 9 0
BBX 8 7 0 0
BITMAP
3C
42
81
81
81
42
3C
ENDCHAR
STARTCHAR p
ENCODING 112
SWIDTH 600 0
DWIDTH 9 0
BBX 8 10 0 -3
BITMAP
DC
62
41
41
41
62
5C
40
40
F0
ENDCHAR
STARTCHAR q
ENCODING 113
SWIDTH 600 0
DWIDTH 9 0
BBX 8 10 0 -3
BITMAP
3B
46
82
82
82
46
3A
02
02
0F
ENDCHAR
STARTCHAR r
ENCODING 114
SWIDTH 600 0
DWIDTH 9 0
BBX 7 7 1 0
BITMAP
CC
52
60
40
40
40
F8
ENDCHAR
STARTCHAR s
ENCODING 115
SWIDTH 600 0
DWIDTH 9 0
BBX 6 7 1 0
BITMAP
7C
84
80
78
04
84
F8
ENDCHAR
STARTCHAR t
ENCODING 116
SWIDTH 600 0
DWIDTH 9 0
BBX 7 9 0 0
BITMAP
20
20
FC
20
20
20
20
22
1C
ENDCHAR
STARTCHAR u
ENCODING 117
SWIDTH 600 0
DWIDTH 9 0
BBX 8 7 0 0
BITMAP
C6
42
42
42
42
46
3B
ENDCHAR
STARTCHAR v
ENCODING 118
SWIDTH 600 0
DWIDTH 9 0
BBX 8 7 0 0
BITMAP
E7
42
42
24
24
18
18
ENDCHAR
STARTCHAR w
ENCODING 119
SWIDTH 600 0
DWIDTH 9 0
BBX 9 7 0 0
BITMAP
E380
4100
4900
4900
2A00
3600
2200
ENDCHAR
STARTCHAR x
ENCODING 120
SWIDTH 600 0
DWIDTH 9 0
BBX 7 7 0 0
BITMAP
EE
44
28
10
28
44
EE
ENDCHAR
STARTCHAR y
ENCODING 121
SWIDTH 600 0
DWIDTH 9 0
BBX 8 10 0 -3
BITMAP
E7
42
42
24
24
18
08
10
10
78
ENDCHAR
STARTCHAR z
ENCODING 122
SWIDTH 600 0
DWIDTH 9 0
BBX 5 7 2 0
BITMAP
F8
88
10
20
40
88
F8
ENDCHAR
STARTCHAR braceleft
ENCODING 123
SWIDTH 600 0
DWIDTH 9 0
BBX 3 12 2 -2
BITMAP
20
40
40
40
40
80
40
40
40
40
40
20
ENDCHAR
STARTCHAR bar
ENCODING 124
SWIDTH 600 0
DWIDTH 9 0
BBX 1 11 3 -2
BITMAP
80
80
80
80
80
80
80
80
80
80
80
ENDCHAR
STARTCHAR braceright
ENCODING 125
SWIDTH 600 0
DWIDTH 9 0
BBX 3 12 2 -2
BITMAP
80
40
40
40
40
20
40
40
40
40
40
80
ENDCHAR
STARTCHAR asciitilde
ENCODING 126
SWIDTH 600 0
DWIDTH 9 0
BBX 6 2 1 3
BITMAP
64
98
ENDCHAR
STARTCHAR space
ENCODING 160
SWIDTH 600 0
DWIDTH 9 0
BBX 1 1 0 0
BITMAP
00
ENDCHAR
STARTCHAR exclamdown
ENCODING 161
SWIDTH 600 0
DWIDTH 9 0
BBX 1 9 4 -2
BITMAP
80
80
00
80
80
80
80
80
80
ENDCHAR
STARTCHAR cent
ENCODING 162
SWIDTH 600 0
DWIDTH 9 0
BBX 5 9 2 0
BITMAP
20
20
78
88
80
88
70
20
20
ENDCHAR
STARTCHAR sterling
ENCODING 163
SWIDTH 600 0
DWIDTH 9 0
BBX 7 9 1 0
BITMAP
18
24
20
20
78
20
20
42
FC
ENDCHAR
STARTCHAR currency
ENCODING 164
SWIDTH 600 0
DWIDTH 9 0
BBX 6 6 1 1
BITMAP
B4
48
84
84
48
B4
ENDCHAR
STARTCHAR yen
ENCODING 165
SWIDTH 600 0
DWIDTH 9 0
BBX 7 9 1 0
BITMAP
EE
44
44
28
7C
10
7C
10
38
ENDCHAR
STARTCHAR brokenbar
ENCODING 166
SWIDTH 600 0
DWIDTH 9 0
BBX 1 11 3 -2
BITMAP
80
80
80
80
00
00
80
80
80
80
80
ENDCHAR
STARTCHAR section
ENCODING 167
SWIDTH 600 0
DWIDTH 9 0
BBX 6 10 1 -1
BITMAP
3C
44
40
F0
88
44
3C
08
88
F0
ENDCHAR
STARTCHAR dieresis
ENCODING 168
SWIDTH 600 0
DWIDTH 9 0
BBX 5 1 2 8
BITMAP
D8
ENDCHAR
STARTCHAR copyright
ENCODING 169
SWIDTH 600 0
DWIDTH 9 0
BBX 8 9 0 0
BITMAP
3C
42
99
A5
A1
A5
99
42
3C
ENDCHAR
STARTCHAR ordfeminine
ENCODING 170
SWIDTH 600 0
DWIDTH 9 0
BBX 4 6 2 3
BITMAP
C0
20
E0
B0
00
F0
ENDCHAR
STARTCHAR guillemotleft
ENCODING 171
SWIDTH 600 0
DWIDTH 9 0
BBX 8 7 0 0
BITMAP
11
22
44
CC
44
22
11
ENDCHAR
STARTCHAR logicalnot
ENCODING 172
SWIDTH 600 0
DWIDTH 9 0
BBX 7 3 1 3
BITMAP
FE
02
02
ENDCHAR
STARTCHAR hyphen
ENCODING 173
SWIDTH 600 0
DWIDTH 9 0
BBX 6 1 1 4
BITMAP
FC
ENDCHAR
STARTCHAR registered
ENCODING 174
SWIDTH 600 0
DWIDTH 9 0
BBX 8 9 0 0
BITMAP
3C
42
B9
A5
B9
A9
A5
42
3C
ENDCHAR
STARTCHAR macron
ENCODING 175
SWIDTH 600 0
DWIDTH 9 0
BBX 4 1 2 8
BITMAP
F0
ENDCHAR
STARTCHAR degree
ENCODING 176
SWIDTH 600 0
DWIDTH 9 0
BBX 4 4 2 6
BITMAP
60
90
90
60
ENDCHAR
STARTCHAR plusminus
ENCODING 177
SWIDTH 600 0
DWIDTH 9 0
BBX 7 7 1 1
BITMAP
10
10
FE
10
10
00
FE
ENDCHAR
STARTCHAR twosuperior
ENCODING 178
SWIDTH 600 0
DWIDTH 9 0
BBX 4 6 2 4
BITMAP
60
90
10
20
40
F0
ENDCHAR
STARTCHAR threesuperior
ENCODING 179
SWIDTH 600 0
DWIDTH 9 0
BBX 4 6 2 4
BITMAP
60
90
60
10
90
60
ENDCHAR
STARTCHAR acute
ENCODING 180
SWIDTH 600 0
DWIDTH 9 0
BBX 4 2 2 8
BITMAP
30
C0
ENDCHAR
STARTCHAR mu
ENCODING 181
SWIDTH 600 0
DWIDTH 9 0
BBX 8 10 0 -3
BITMAP
C6
42
42
42
42
46
7B
40
40
40
ENDCHAR
STARTCHAR paragraph
ENCODING 182
SWIDTH 600 0
DWIDTH 9 0
BBX 7 10 1 -1
BITMAP
7E
94
94
94
74
14
14
14
14
3E
ENDCHAR
STARTCHAR periodcentered
ENCODING 183
SWIDTH 600 0
DWIDTH 9 0
BBX 2 2 3 3
BITMAP
C0
C0
ENDCHAR
STARTCHAR cedilla
ENCODING 184
SWIDTH 600 0
DWIDTH 9 0
BBX 3 3 2 -3
BITMAP
40
20
E0
ENDCHAR
STARTCHAR onesuperior
ENCODING 185
SWIDTH 600 0
DWIDTH 9 0
BBX 3 6 3 4
BITMAP
40
C0
40
40
40
E0
ENDCHAR
STARTCHAR ordmasculine
ENCODING 186
SWIDTH 600 0
DWIDTH 9 0
BBX 4 6 2 3
BITMAP
60
90
90
60
00
F0
ENDCHAR
STARTCHAR guillemotright
ENCODING 187
SWIDTH 600 0
DWIDTH 9 0
BBX 8 7 0 0
BITMAP
88
44
22
33
22
44
88
ENDCHAR
STARTCHAR onequarter
ENCODING 188
SWIDTH 600 0
DWIDTH 9 0
BBX 10 10 -1 0
BITMAP
4000
C100
4200
4400
4480
E980
1280
1480
27C0
4080
ENDCHAR
STARTCHAR onehalf
ENCODING 189
SWIDTH 600 0
DWIDTH 9 0
BBX 10 10 -1 0
BITMAP
4000
C100
4200
4400
4580
EA40
1040
1080
2100
43C0
ENDCHAR
STARTCHAR threequarters
ENCODING 190
SWIDTH 600 0
DWIDTH 9 0
BBX 10 10 -1 0
BITMAP
6000
9100
6200
1400
9480
6980
1280
1480
27C0
4080
ENDCHAR
STARTCHAR questiondown
ENCODING 191
SWIDTH 600 0
DWIDTH 9 0
BBX 5 9 2 -2
BITMAP
20
20
00
20
60
80
80
88
70
ENDCHAR
STARTCHAR Agrave
ENCODING 192
SWIDTH 600 0
DWIDTH 9 0
BBX 9 12 0 0
BITMAP
3000
0C00
0000
3800
0800
1400
1400
2200
3E00
4100
4100
F780
ENDCHAR
STARTCHAR Aacute
ENCODING 193
SWIDTH 600 0
DWIDTH 9 0
BBX 9 12 0 0
BITMAP
0C00
3000
0000
3800
0800
1400
1400
2200
3E00
4100
4100
F780
ENDCHAR
STARTCHAR Acircumflex
ENCODING 194
SWIDTH 600 0
DWIDTH 9 0
BBX 9 12 0 0
BITMAP
0800
1400
0000
3800
0800
1400
1400
2200
3E00
4100
4100
F780
ENDCHAR
STARTCHAR Atilde
ENCODING 195
SWIDTH 600 0
DWIDTH 9 0
BBX 9 12 0 0
BITMAP
1A00
2C00
0000
3800
0800
1400
1400
2200
3E00
4100
4100
F780
ENDCHAR
STARTCHAR Adieresis
ENCODING 196
SWIDTH 600 0
DWIDTH 9 0
BBX 9 11 0 0
BITMAP
3600
0000
3800
0800
1400
1400
2200
3E00
4100
4100
F780
ENDCHAR
STARTCHAR Aring
ENCODING 197
SWIDTH 600 0
DWIDTH 9 0
BBX 9 12 0 0
BITMAP
1800
2400
1800
3800
0800
1400
1400
2200
3E00
4100
4100
F780
ENDCHAR
STARTCHAR AE
ENCODING 198
SWIDTH 600 0
DWIDTH 9 0
BBX 9 9 -1 0
BITMAP
1F80
0C80
1400
1480
2780
3C80
4400
4480
EF80
ENDCHAR
STARTCHAR Ccedilla
ENCODING 199
SWIDTH 600 0
DWIDTH 9 0
BBX 7 12 1 -3
BITMAP
3A
46
82
80
80
80
80
42
3C
10
08
38
ENDCHAR
STARTCHAR Egrave
ENCODING 200
SWIDTH 600 0
DWIDTH 9 0
BBX 7 12 1 0
BITMAP
60
18
00
FE
42
42
48
78
48
42
42
FE
ENDCHAR
STARTCHAR Eacute
ENCODING 201
SWIDTH 600 0
DWIDTH 9 0
BBX 7 12 1 0
BITMAP
0C
30
00
FE
42
42
48
78
48
42
42
FE
ENDCHAR
STARTCHAR Ecircumflex
ENCODING 202
SWIDTH 600 0
DWIDTH 9 0
BBX 7 12 1 0
BITMAP
10
28
00
FE
42
42
48
78
48
42
42
FE
ENDCHAR
STARTCHAR Edieresis
ENCODING 203
SWIDTH 600 0
DWIDTH 9 0
BBX 7 11 1 0
BITMAP
6C
00
FE
42
42
48
78
48
42
42
FE
ENDCHAR
STARTCHAR Igrave
ENCODING 204
SWIDTH 600 0
DWIDTH 9 0
BBX 5 12 2 0
BITMAP
C0
30
00
F8
20
20
20
20
20
20
20
F8
ENDCHAR
STARTCHAR Iacute
ENCODING 205
SWIDTH 600 0
DWIDTH 9 0
BBX 5 12 2 0
BITMAP
18
60
00
F8
20
20
20
20
20
20
20
F8
ENDCHAR
STARTCHAR Icircumflex
ENCODING 206
SWIDTH 600 0
DWIDTH 9 0
BBX 5 12 2 0
BITMAP
20
50
00
F8
20
20
20
20
20
20
20
F8
ENDCHAR
STARTCHAR Idieresis
ENCODING 207
SWIDTH 600 0
DWIDTH 9 0
BBX 5 11 2 0
BITMAP
D8
00
F8
20
20
20
20
20
20
20
F8
ENDCHAR
STARTCHAR Eth
ENCODING 208
SWIDTH 600 0
DWIDTH 9 0
BBX 8 9 0 0
BITMAP
FC
42
41
41
F1
41
41
42
FC
ENDCHAR
STARTCHAR Ntilde
ENCODING 209
SWIDTH 600 0
DWIDTH 9 0
BBX 8 12 0 0
BITMAP
1A
2C
00
E7
62
52
52
4A
4A
46
46
E2
ENDCHAR
STARTCHAR Ograve
ENCODING 210
SWIDTH 600 0
DWIDTH 9 0
BBX 8 12 0 0
BITMAP
30
0C
00
3C
42
81
81
81
81
81
42
3C
ENDCHAR
STARTCHAR Oacute
ENCODING 211
SWIDTH 600 0
DWIDTH 9 0
BBX 8 12 0 0
BITMAP
0C
30
00
3C
42
81
81
81
81
81
42
3C
ENDCHAR
STARTCHAR Ocircumflex
ENCODING 212
SWIDTH 600 0
DWIDTH 9 0
BBX 8 12 0 0
BITMAP
10
28
00
3C
42
81
81
81
81
81
42
3C
ENDCHAR
STARTCHAR Otilde
ENCODING 213
SWIDTH 600 0
DWIDTH 9 0
BBX 8 12 0 0
BITMAP
1A
2C
00
3C
42
81
81
81
81
81
42
3C
ENDCHAR
STARTCHAR Odieresis
ENCODING 214
SWIDTH 600 0
DWIDTH 9 0
BBX 8 11 0 0
BITMAP
66
00
3C
42
81
81
81
81
81
42
3C
ENDCHAR
STARTCHAR multiply
ENCODING 215
SWIDTH 600 0
DWIDTH 9 0
BBX 7 7 1 1
BITMAP
82
44
28
10
28
44
82
ENDCHAR
STARTCHAR Oslash
ENCODING 216
SWIDTH 600 0
DWIDTH 9 0
BBX 9 9 -1 0
BITMAP
1E80
2100
4280
4480
4880
5080
2080
6100
9E00
ENDCHAR
STARTCHAR Ugrave
ENCODING 217
SWIDTH 600 0
DWIDTH 9 0
BBX 8 12 0 0
BITMAP
30
0C
00
E7
42
42
42
42
42
42
42
3C
ENDCHAR
STARTCHAR Uacute
ENCODING 218
SWIDTH 600 0
DWIDTH 9 0
BBX 8 12 0 0
BITMAP
0C
30
00
E7
42
42
42
42
42
42
42
3C
ENDCHAR
STARTCHAR Ucircumflex
ENCODING 219
SWIDTH 600 0
DWIDTH 9 0
BBX 8 12 0 0
BITMAP
10
28
00
E7
42
42
42
42
42
42
42
3C
ENDCHAR
STARTCHAR Udieresis
ENCODING 220
SWIDTH 600 0
DWIDTH 9 0
BBX 8 11 0 0
BITMAP
66
00
E7
42
42
42
42
42
42
42
3C
ENDCHAR
STARTCHAR Yacute
ENCODING 221
SWIDTH 600 0
DWIDTH 9 0
BBX 7 12 1 0
BITMAP
0C
30
00
EE
44
44
28
28
10
10
10
7C
ENDCHAR
STARTCHAR Thorn
ENCODING 222
SWIDTH 600 0
DWIDTH 9 0
BBX 7 9 0 0
BITMAP
E0
40
7C
42
42
42
7C
40
E0
ENDCHAR
STARTCHAR germandbls
ENCODING 223
SWIDTH 600 0
DWIDTH 9 0
BBX 7 9 0 0
BITMAP
38
44
44
58
44
42
42
52
CC
ENDCHAR
STARTCHAR agrave
ENCODING 224
SWIDTH 600 0
DWIDTH 9 0
BBX 7 10 1 0
BITMAP
60
18
00
78
84
04
7C
84
8C
76
ENDCHAR
STARTCHAR aacute
ENCODING 225
SWIDTH 600 0
DWIDTH 9 0
BBX 7 10 1 0
BITMAP
18
60
00
78
84
04
7C
84
8C
76
ENDCHAR
STARTCHAR acircumflex
ENCODING 226
SWIDTH 600 0
DWIDTH 9 0
BBX 7 10 1 0
BITMAP
10
28
00
78
84
04
7C
84
8C
76
ENDCHAR
STARTCHAR atilde
ENCODING 227
SWIDTH 600 0
DWIDTH 9 0
BBX 7 10 1 0
BITMAP
34
58
00
78
84
04
7C
84
8C
76
ENDCHAR
STARTCHAR adieresis
ENCODING 228
SWIDTH 600 0
DWIDTH 9 0
BBX 7 9 1 0
BITMAP
6C
00
78
84
04
7C
84
8C
76
ENDCHAR
STARTCHAR aring
ENCODING 229
SWIDTH 600 0
DWIDTH 9 0
BBX 7 10 1 0
BITMAP
30
48
30
78
84
04
7C
84
8C
76
ENDCHAR
STARTCHAR ae
ENCODING 230
SWIDTH 600 0
DWIDTH 9 0
BBX 8 7 0 0
BITMAP
76
89
09
7F
88
89
76
ENDCHAR
STARTCHAR ccedilla
ENCODING 231
SWIDTH 600 0
DWIDTH 9 0
BBX 7 10 1 -3
BITMAP
3A
46
82
80
80
42
3C
10
08
38
ENDCHAR
STARTCHAR egrave
ENCODING 232
SWIDTH 600 0
DWIDTH 9 0
BBX 7 10 1 0
BITMAP
60
18
00
38
44
82
FE
80
42
3C
ENDCHAR
STARTCHAR eacute
ENCODING 233
SWIDTH 600 0
DWIDTH 9 0
BBX 7 10 1 0
BITMAP
0C
30
00
38
44
82
FE
80
42
3C
ENDCHAR
STARTCHAR ecircumflex
ENCODING 234
SWIDTH 600 0
DWIDTH 9 0
BBX 7 10 1 0
BITMAP
10
28
00
38
44
82
FE
80
42
3C
ENDCHAR
STARTCHAR edieresis
ENCODING 235
SWIDTH 600 0
DWIDTH 9 0
BBX 7 9 1 0
BITMAP
6C
00
38
44
82
FE
80
42
3C
ENDCHAR
STARTCHAR igrave
ENCODING 236
SWIDTH 600 0
DWIDTH 9 0
BBX 5 10 2 0
BITMAP
C0
30
00
E0
20
20
20
20
20
F8
ENDCHAR
STARTCHAR iacute
ENCODING 237
SWIDTH 600 0
DWIDTH 9 0
BBX 5 10 2 0
BITMAP
30
C0
00
E0
20
20
20
20
20
F8
ENDCHAR
STARTCHAR icircumflex
ENCODING 238
SWIDTH 600 0
DWIDTH 9 0
BBX 5 10 2 0
BITMAP
20
50
00
E0
20
20
20
20
20
F8
ENDCHAR
STARTCHAR idieresis
ENCODING 239
SWIDTH 600 0
DWIDTH 9 0
BBX 5 9 2 0
BITMAP
D8
00
E0
20
20
20
20
20
F8
ENDCHAR
STARTCHAR eth
ENCODING 240
SWIDTH 600 0
DWIDTH 9 0
BBX 8 12 0 0
BITMAP
02
E4
18
28
44
3C
42
81
81
81
42
3C
ENDCHAR
STARTCHAR ntilde
ENCODING 241
SWIDTH 600 0
DWIDTH 9 0
BBX 8 10 0 0
BITMAP
1A
2C
00
DC
62
42
42
42
42
E7
ENDCHAR
STARTCHAR ograve
ENCODING 242
SWIDTH 600 0
DWIDTH 9 0
BBX 8 10 0 0
BITMAP
30
0C
00
3C
42
81
81
81
42
3C
ENDCHAR
STARTCHAR oacute
ENCODING 243
SWIDTH 600 0
DWIDTH 9 0
BBX 8 10 0 0
BITMAP
0C
30
00
3C
42
81
81
81
42
3C
ENDCHAR
STARTCHAR ocircumflex
ENCODING 244
SWIDTH 600 0
DWIDTH 9 0
BBX 8 10 0 0
BITMAP
10
28
00
3C
42
81
81
81
42
3C
ENDCHAR
STARTCHAR otilde
ENCODING 245
SWIDTH 600 0
DWIDTH 9 0
BBX 8 10 0 0
BITMAP
1A
2C
00
3C
42
81
81
81
42
3C
ENDCHAR
STARTCHAR odieresis
ENCODING 246
SWIDTH 600 0
DWIDTH 9 0
BBX 8 9 0 0
BITMAP
6C
00
3C
42
81
81
81
42
3C
ENDCHAR
STARTCHAR divide
ENCODING 247
SWIDTH 600 0
DWIDTH 9 0
BBX 8 7 0 1
BITMAP
18
18
00
FF
00
18
18
ENDCHAR
STARTCHAR oslash
ENCODING 248
SWIDTH 600 0
DWIDTH 9 0
BBX 8 7 0 0
BITMAP
3D
46
89
91
A1
42
BC
ENDCHAR
STARTCHAR ugrave
ENCODING 249
SWIDTH 600 0
DWIDTH 9 0
BBX 8 10 0 0
BITMAP
30
0C
00
C6
42
42
42
42
46
3B
ENDCHAR
STARTCHAR uacute
ENCODING 250
SWIDTH 600 0
DWIDTH 9 0
BBX 8 10 0 0
BITMAP
0C
30
00
C6
42
42
42
42
46
3B
ENDCHAR
STARTCHAR ucircumflex
ENCODING 251
SWIDTH 600 0
DWIDTH 9 0
BBX 8 10 0 0
BITMAP
10
28
00
C6
42
42
42
42
46
3B
ENDCHAR
STARTCHAR udieresis
ENCODING 252
SWIDTH 600 0
DWIDTH 9 0
BBX 8 9 0 0
BITMAP
6C
00
C6
42
42
42
42
46
3B
ENDCHAR
STARTCHAR yacute
ENCODING 253
SWIDTH 600 0
DWIDTH 9 0
BBX 8 13 0 -3
BITMAP
06
18
00
E7
42
42
24
24
18
08
10
10
78
ENDCHAR
STARTCHAR thorn
ENCODING 254
SWIDTH 600 0
DWIDTH 9 0
BBX 8 12 0 -3
BITMAP
C0
40
5C
62
41
41
41
62
5C
40
40
F0
ENDCHAR
STARTCHAR ydieresis
ENCODING 255
SWIDTH 600 0
DWIDTH 9 0
BBX 8 12 0 -3
BITMAP
36
00
E7
42
42
24
24
18
08
10
10
78
ENDCHAR
STARTCHAR Amacron
ENCODING 256
SWIDTH 600 0
DWIDTH 9 0
BBX 9 11 -1 0
BITMAP
3C00
0000
3800
0800
1400
1400
2200
3E00
4100
4100
F780
ENDCHAR
STARTCHAR amacron
ENCODING 257
SWIDTH 600 0
DWIDTH 9 0
BBX 7 9 1 0
BITMAP
78
00
78
84
04
7C
84
84
7A
ENDCHAR
STARTCHAR Abreve
ENCODING 258
SWIDTH 600 0
DWIDTH 9 0
BBX 9 12 -1 0
BITMAP
2200
1C00
0000
3800
0800
1400
1400
2200
3E00
4100
4100
F780
ENDCHAR
STARTCHAR abreve
ENCODING 259
SWIDTH 600 0
DWIDTH 9 0
BBX 7 10 1 0
BITMAP
44
38
00
78
84
04
7C
84
84
7A
ENDCHAR
STARTCHAR Aogonek
ENCODING 260
SWIDTH 600 0
DWIDTH 9 0
BBX 9 12 -1 -3
BITMAP
3800
0800
1400
1400
2200
3E00
4100
4100
F780
0C00
1000
0C00
ENDCHAR
STARTCHAR aogonek
ENCODING 261
SWIDTH 600 0
DWIDTH 9 0
BBX 7 10 1 -3
BITMAP
78
84
04
7C
84
84
7A
18
20
18
ENDCHAR
STARTCHAR Cacute
ENCODING 262
SWIDTH 600 0
DWIDTH 9 0
BBX 7 12 1 0
BITMAP
06
18
00
3A
46
82
80
80
80
80
42
3C
ENDCHAR
STARTCHAR cacute
ENCODING 263
SWIDTH 600 0
DWIDTH 9 0
BBX 7 10 1 0
BITMAP
06
18
00
3A
46
82
80
80
42
3C
ENDCHAR
STARTCHAR Ccircumflex
ENCODING 264
SWIDTH 600 0
DWIDTH 9 0
BBX 7 12 1 0
BITMAP
10
28
00
3A
46
82
80
80
80
80
42
3C
ENDCHAR
STARTCHAR ccircumflex
ENCODING 265
SWIDTH 600 0
DWIDTH 9 0
BBX 7 10 1 0
BITMAP
08
14
00
3A
46
82
80
80
42
3C
ENDCHAR
STARTCHAR Cdotaccent
ENCODING 266
SWIDTH 600 0
DWIDTH 9 0
BBX 7 11 1 0
BITMAP
18
00
3A
46
82
80
80
80
80
42
3C
ENDCHAR
STARTCHAR cdotaccent
ENCODING 267
SWIDTH 600 0
DWIDTH 9 0
BBX 7 9 1 0
BITMAP
18
00
3A
46
82
80
80
42
3C
ENDCHAR
STARTCHAR Ccaron
ENCODING 268
SWIDTH 600 0
DWIDTH 9 0
BBX 7 12 1 0
BITMAP
28
10
00
3A
46
82
80
80
80
80
42
3C
ENDCHAR
STARTCHAR ccaron
ENCODING 269
SWIDTH 600 0
DWIDTH 9 0
BBX 7 10 1 0
BITMAP
14
08
00
3A
46
82
80
80
42
3C
ENDCHAR
STARTCHAR Dcaron
ENCODING 270
SWIDTH 600 0
DWIDTH 9 0
BBX 8 12 0 0
BITMAP
28
10
00
FC
42
41
41
41
41
41
42
FC
ENDCHAR
STARTCHAR dcaron
ENCODING 271
SWIDTH 600 0
DWIDTH 9 0
BBX 8 13 0 0
BITMAP
0A
04
00
06
02
02
3A
46
82
82
82
46
3B
ENDCHAR
STARTCHAR Dcroat
ENCODING 272
SWIDTH 600 0
DWIDTH 9 0
BBX 8 9 0 0
BITMAP
FC
42
41
41
F1
41
41
42
FC
ENDCHAR
STARTCHAR dcroat
ENCODING 273
SWIDTH 600 0
DWIDTH 9 0
BBX 8 10 0 0
BITMAP
06
1F
02
3A
46
82
82
82
46
3B
ENDCHAR
STARTCHAR Emacron
ENCODING 274
SWIDTH 600 0
DWIDTH 9 0
BBX 7 11 1 0
BITMAP
3C
00
FE
42
42
48
78
48
42
42
FE
ENDCHAR
STARTCHAR emacron
ENCODING 275
SWIDTH 600 0
DWIDTH 9 0
BBX 7 9 1 0
BITMAP
3C
00
38
44
82
FE
80
42
3C
ENDCHAR
STARTCHAR Ebreve
ENCODING 276
SWIDTH 600 0
DWIDTH 9 0
BBX 7 12 1 0
BITMAP
44
38
00
FE
42
42
48
78
48
42
42
FE
ENDCHAR
STARTCHAR ebreve
ENCODING 277
SWIDTH 600 0
DWIDTH 9 0
BBX 7 10 1 0
BITMAP
44
38
00
38
44
82
FE
80
42
3C
ENDCHAR
STARTCHAR Edotaccent
ENCODING 278
SWIDTH 600 0
DWIDTH 9 0
BBX 7 11 1 0
BITMAP
18
00
FE
42
42
48
78
48
42
42
FE
ENDCHAR
STARTCHAR edotaccent
ENCODING 279
SWIDTH 600 0
DWIDTH 9 0
BBX 7 9 1 0
BITMAP
18
00
38
44
82
FE
80
42
3C
ENDCHAR
STARTCHAR Eogonek
ENCODING 280
SWIDTH 600 0
DWIDTH 9 0
BBX 7 12 1 -3
BITMAP
FE
42
42
48
78
48
42
42
FE
18
20
18
ENDCHAR
STARTCHAR eogonek
ENCODING 281
SWIDTH 600 0
DWIDTH 9 0
BBX 7 10 1 -3
BITMAP
38
44
82
FE
80
42
3C
18
20
18
ENDCHAR
STARTCHAR Ecaron
ENCODING 282
SWIDTH 600 0
DWIDTH 9 0
BBX 7 12 1 0
BITMAP
28
10
00
FE
42
42
48
78
48
42
42
FE
ENDCHAR
STARTCHAR ecaron
ENCODING 283
SWIDTH 600 0
DWIDTH 9 0
BBX 7 10 1 0
BITMAP
28
10
00
38
44
82
FE
80
42
3C
ENDCHAR
STARTCHAR Gcircumflex
ENCODING 284
SWIDTH 600 0
DWIDTH 9 0
BBX 8 12 0 0
BITMAP
08
14
00
3A
46
82
80
80
8F
82
42
3C
ENDCHAR
STARTCHAR gcircumflex
ENCODING 285
SWIDTH 600 0
DWIDTH 9 0
BBX 8 13 0 -3
BITMAP
08
14
00
3B
46
82
82
82
46
3A
02
04
78
ENDCHAR
STARTCHAR Gbreve
ENCODING 286
SWIDTH 600 0
DWIDTH 9 0
BBX 8 12 0 0
BITMAP
22
1C
00
3A
46
82
80
80
8F
82
42
3C
ENDCHAR
STARTCHAR gbreve
ENCODING 287
SWIDTH 600 0
DWIDTH 9 0
BBX 8 13 0 -3
BITMAP
22
1C
00
3B
46
82
82
82
46
3A
02
04
78
ENDCHAR
STARTCHAR Gdotaccent
ENCODING 288
SWIDTH 600 0
DWIDTH 9 0
BBX 8 11 0 0
BITMAP
18
00
3A
46
82
80
80
8F
82
42
3C
ENDCHAR
STARTCHAR gdotaccent
ENCODING 289
SWIDTH 600 0
DWIDTH 9 0
BBX 8 12 0 -3
BITMAP
18
00
3B
46
82
82
82
46
3A
02
04
78
ENDCHAR
STARTCHAR Gcommaaccent
ENCODING 290
SWIDTH 600 0
DWIDTH 9 0
BBX 8 14 0 -5
BITMAP
3A
46
82
80
80
8F
82
42
3C
00
18
18
30
20
ENDCHAR
STARTCHAR gcommaaccent
ENCODING 291
SWIDTH 600 0
DWIDTH 9 0
BBX 8 15 0 -3
BITMAP
30
30
18
08
00
3B
46
82
82
82
46
3A
02
04
78
ENDCHAR
STARTCHAR Hcircumflex
ENCODING 292
SWIDTH 600 0
DWIDTH 9 0
BBX 8 12 0 0
BITMAP
08
14
00
E7
42
42
42
7E
42
42
42
E7
ENDCHAR
STARTCHAR hcircumflex
ENCODING 293
SWIDTH 600 0
DWIDTH 9 0
BBX 8 13 0 0
BITMAP
20
50
00
C0
40
40
5C
62
42
42
42
42
E7
ENDCHAR
STARTCHAR Hbar
ENCODING 294
SWIDTH 600 0
DWIDTH 9 0
BBX 8 9 0 0
BITMAP
E7
FF
42
42
7E
42
42
42
E7
ENDCHAR
STARTCHAR hbar
ENCODING 295
SWIDTH 600 0
DWIDTH 9 0
BBX 8 10 0 0
BITMAP
C0
F8
40
5C
62
42
42
42
42
E7
ENDCHAR
STARTCHAR Itilde
ENCODING 296
SWIDTH 600 0
DWIDTH 9 0
BBX 5 12 2 0
BITMAP
68
B0
00
F8
20
20
20
20
20
20
20
F8
ENDCHAR
STARTCHAR itilde
ENCODING 297
SWIDTH 600 0
DWIDTH 9 0
BBX 5 10 2 0
BITMAP
68
B0
00
E0
20
20
20
20
20
F8
ENDCHAR
STARTCHAR Imacron
ENCODING 298
SWIDTH 600 0
DWIDTH 9 0
BBX 5 11 2 0
BITMAP
78
00
F8
20
20
20
20
20
20
20
F8
ENDCHAR
STARTCHAR imacron
ENCODING 299
SWIDTH 600 0
DWIDTH 9 0
BBX 5 9 2 0
BITMAP
F0
00
E0
20
20
20
20
20
F8
ENDCHAR
STARTCHAR Ibreve
ENCODING 300
SWIDTH 600 0
DWIDTH 9 0
BBX 5 12 2 0
BITMAP
88
70
00
F8
20
20
20
20
20
20
20
F8
ENDCHAR
STARTCHAR ibreve
ENCODING 301
SWIDTH 600 0
DWIDTH 9 0
BBX 5 10 2 0
BITMAP
88
70
00
E0
20
20
20
20
20
F8
ENDCHAR
STARTCHAR Iogonek
ENCODING 302
SWIDTH 600 0
DWIDTH 9 0
BBX 5 12 2 -3
BITMAP
F8
20
20
20
20
20
20
20
F8
30
40
30
ENDCHAR
STARTCHAR iogonek
ENCODING 303
SWIDTH 600 0
DWIDTH 9 0
BBX 5 13 2 -3
BITMAP
20
20
00
E0
20
20
20
20
20
F8
30
40
30
ENDCHAR
STARTCHAR Idotaccent
ENCODING 304
SWIDTH 600 0
DWIDTH 9 0
BBX 5 11 2 0
BITMAP
30
00
F8
20
20
20
20
20
20
20
F8
ENDCHAR
STARTCHAR dotlessi
ENCODING 305
SWIDTH 600 0
DWIDTH 9 0
BBX 5 7 2 0
BITMAP
E0
20
20
20
20
20
F8
ENDCHAR
STARTCHAR IJ
ENCODING 306
SWIDTH 600 0
DWIDTH 9 0
BBX 8 9 2 0
BITMAP
FF
24
24
24
24
64
64
64
F8
ENDCHAR
STARTCHAR ij
ENCODING 307
SWIDTH 600 0
DWIDTH 9 0
BBX 7 13 2 -3
BITMAP
22
22
00
FE
22
22
22
22
22
FA
02
04
38
ENDCHAR
STARTCHAR Jcircumflex
ENCODING 308
SWIDTH 600 0
DWIDTH 9 0
BBX 7 12 1 0
BITMAP
08
14
00
3E
08
08
08
08
88
88
88
70
ENDCHAR
STARTCHAR jcircumflex
ENCODING 309
SWIDTH 600 0
DWIDTH 9 0
BBX 5 13 1 -3
BITMAP
20
50
00
F8
08
08
08
08
08
08
08
10
E0
ENDCHAR
STARTCHAR Kcommaaccent
ENCODING 310
SWIDTH 600 0
DWIDTH 9 0
BBX 8 14 0 -5
BITMAP
EE
44
48
50
70
48
44
44
E3
00
18
18
30
20
ENDCHAR
STARTCHAR kcommaaccent
ENCODING 311
SWIDTH 600 0
DWIDTH 9 0
BBX 7 15 1 -5
BITMAP
C0
40
40
4E
48
50
60
50
48
CE
00
18
18
30
20
ENDCHAR
STARTCHAR kgreenlandic
ENCODING 312
SWIDTH 600 0
DWIDTH 9 0
BBX 7 7 1 0
BITMAP
4E
48
50
60
50
48
CE
ENDCHAR
STARTCHAR Lacute
ENCODING 313
SWIDTH 600 0
DWIDTH 9 0
BBX 8 12 0 0
BITMAP
0C
30
00
F8
20
20
20
20
21
21
21
FF
ENDCHAR
STARTCHAR lacute
ENCODING 314
SWIDTH 600 0
DWIDTH 9 0
BBX 5 13 2 0
BITMAP
18
60
00
E0
20
20
20
20
20
20
20
20
F8
ENDCHAR
STARTCHAR Lcommaaccent
ENCODING 315
SWIDTH 600 0
DWIDTH 9 0
BBX 8 14 0 -5
BITMAP
F8
20
20
20
20
21
21
21
FF
00
18
18
30
20
ENDCHAR
STARTCHAR lcommaaccent
ENCODING 316
SWIDTH 600 0
DWIDTH 9 0
BBX 5 15 2 -5
BITMAP
E0
20
20
20
20
20
20
20
20
F8
00
30
30
60
40
ENDCHAR
STARTCHAR Lcaron
ENCODING 317
SWIDTH 600 0
DWIDTH 9 0
BBX 8 12 0 0
BITMAP
28
10
00
F8
20
20
20
20
21
21
21
FF
ENDCHAR
STARTCHAR lcaron
ENCODING 318
SWIDTH 600 0
DWIDTH 9 0
BBX 5 13 2 0
BITMAP
50
20
00
E0
20
20
20
20
20
20
20
20
F8
ENDCHAR
STARTCHAR Ldot
ENCODING 319
SWIDTH 600 0
DWIDTH 9 0
BBX 8 9 0 0
BITMAP
F8
20
20
20
2C
2D
21
21
FF
ENDCHAR
STARTCHAR ldot
ENCODING 320
SWIDTH 600 0
DWIDTH 9 0
BBX 7 10 2 0
BITMAP
E0
20
20
20
20
26
26
20
20
F8
ENDCHAR
STARTCHAR Lslash
ENCODING 321
SWIDTH 600 0
DWIDTH 9 0
BBX 8 9 0 0
BITMAP
F8
20
28
30
60
A1
21
21
FF
ENDCHAR
STARTCHAR lslash
ENCODING 322
SWIDTH 600 0
DWIDTH 9 0
BBX 5 9 2 0
BITMAP
E0
20
28
30
60
A0
20
20
F8
ENDCHAR
STARTCHAR Nacute
ENCODING 323
SWIDTH 600 0
DWIDTH 9 0
BBX 8 12 0 0
BITMAP
06
18
00
E7
62
52
52
4A
4A
46
46
E2
ENDCHAR
STARTCHAR nacute
ENCODING 324
SWIDTH 600 0
DWIDTH 9 0
BBX 8 10 0 0
BITMAP
0C
30
00
DC
62
42
42
42
42
E7
ENDCHAR
STARTCHAR Ncommaaccent
ENCODING 325
SWIDTH 600 0
DWIDTH 9 0
BBX 8 14 0 -5
BITMAP
E7
62
52
52
4A
4A
46
46
E2
00
18
18
30
20
ENDCHAR
STARTCHAR ncommaaccent
ENCODING 326
SWIDTH 600 0
DWIDTH 9 0
BBX 8 12 0 -5
BITMAP
DC
62
42
42
42
42
E7
00
18
18
30
20
ENDCHAR
STARTCHAR Ncaron
ENCODING 327
SWIDTH 600 0
DWIDTH 9 0
BBX 8 12 0 0
BITMAP
28
10
00
E7
62
52
52
4A
4A
46
46
E2
ENDCHAR
STARTCHAR ncaron
ENCODING 328
SWIDTH 600 0
DWIDTH 9 0
BBX 8 10 0 0
BITMAP
28
10
00
DC
62
42
42
42
42
E7
ENDCHAR
STARTCHAR napostrophe
ENCODING 329
SWIDTH 600 0
DWIDTH 9 0
BBX 10 10 -2 0
BITMAP
6000
6000
C000
B700
1880
1080
1080
1080
1080
39C0
ENDCHAR
STARTCHAR Eng
ENCODING 330
SWIDTH 600 0
DWIDTH 9 0
BBX 8 12 0 -3
BITMAP
E7
62
52
52
4A
4A
46
46
E2
02
04
38
ENDCHAR
STARTCHAR eng
ENCODING 331
SWIDTH 600 0
DWIDTH 9 0
BBX 7 10 0 -3
BITMAP
DC
62
42
42
42
42
E2
02
04
38
ENDCHAR
STARTCHAR Omacron
ENCODING 332
SWIDTH 600 0
DWIDTH 9 0
BBX 8 11 0 0
BITMAP
3C
00
3C
42
81
81
81
81
81
42
3C
ENDCHAR
STARTCHAR omacron
ENCODING 333
SWIDTH 600 0
DWIDTH 9 0
BBX 8 9 0 0
BITMAP
3C
00
3C
42
81
81
81
42
3C
ENDCHAR
STARTCHAR Obreve
ENCODING 334
SWIDTH 600 0
DWIDTH 9 0
BBX 8 12 0 0
BITMAP
22
1C
00
3C
42
81
81
81
81
81
42
3C
ENDCHAR
STARTCHAR obreve
ENCODING 335
SWIDTH 600 0
DWIDTH 9 0
BBX 8 10 0 0
BITMAP
22
1C
00
3C
42
81
81
81
42
3C
ENDCHAR
STARTCHAR Ohungarumlaut
ENCODING 336
SWIDTH 600 0
DWIDTH 9 0
BBX 8 13 0 0
BITMAP
0A
14
28
00
3C
42
81
81
81
81
81
42
3C
ENDCHAR
STARTCHAR ohungarumlaut
ENCODING 337
SWIDTH 600 0
DWIDTH 9 0
BBX 8 11 0 0
BITMAP
0A
14
28
00
3C
42
81
81
81
42
3C
ENDCHAR
STARTCHAR OE
ENCODING 338
SWIDTH 600 0
DWIDTH 9 0
BBX 8 9 0 0
BITMAP
3F
49
88
89
8F
89
88
49
3F
ENDCHAR
STARTCHAR oe
ENCODING 339
SWIDTH 600 0
DWIDTH 9 0
BBX 7 7 1 0
BITMAP
6C
92
9E
90
90
92
6C
ENDCHAR
STARTCHAR Racute
ENCODING 340
SWIDTH 600 0
DWIDTH 9 0
BBX 8 12 0 0
BITMAP
0C
30
00
FC
42
42
42
44
78
44
42
E1
ENDCHAR
STARTCHAR racute
ENCODING 341
SWIDTH 600 0
DWIDTH 9 0
BBX 7 10 1 0
BITMAP
0C
30
00
CC
52
60
40
40
40
F8
ENDCHAR
STARTCHAR Rcommaaccent
ENCODING 342
SWIDTH 600 0
DWIDTH 9 0
BBX 8 14 0 -5
BITMAP
FC
42
42
42
44
78
44
42
E1
00
18
18
30
20
ENDCHAR
STARTCHAR rcommaaccent
ENCODING 343
SWIDTH 600 0
DWIDTH 9 0
BBX 7 12 1 -5
BITMAP
CC
52
60
40
40
40
F8
00
30
30
60
40
ENDCHAR
STARTCHAR Rcaron
ENCODING 344
SWIDTH 600 0
DWIDTH 9 0
BBX 8 12 0 0
BITMAP
28
10
00
FC
42
42
42
44
78
44
42
E1
ENDCHAR
STARTCHAR rcaron
ENCODING 345
SWIDTH 600 0
DWIDTH 9 0
BBX 7 10 1 0
BITMAP
28
10
00
CC
52
60
40
40
40
F8
ENDCHAR
STARTCHAR Sacute
ENCODING 346
SWIDTH 600 0
DWIDTH 9 0
BBX 6 12 1 0
BITMAP
0C
30
00
74
8C
84
80
78
04
84
C4
B8
ENDCHAR
STARTCHAR sacute
ENCODING 347
SWIDTH 600 0
DWIDTH 9 0
BBX 6 10 1 0
BITMAP
0C
30
00
7C
84
80
78
04
84
F8
ENDCHAR
STARTCHAR Scircumflex
ENCODING 348
SWIDTH 600 0
DWIDTH 9 0
BBX 6 12 1 0
BITMAP
10
28
00
74
8C
84
80
78
04
84
C4
B8
ENDCHAR
STARTCHAR scircumflex
ENCODING 349
SWIDTH 600 0
DWIDTH 9 0
BBX 6 10 1 0
BITMAP
10
28
00
7C
84
80
78
04
84
F8
ENDCHAR
STARTCHAR Scedilla
ENCODING 350
SWIDTH 600 0
DWIDTH 9 0
BBX 6 12 1 -3
BITMAP
74
8C
84
80
78
04
84
C4
B8
20
10
70
ENDCHAR
STARTCHAR scedilla
ENCODING 351
SWIDTH 600 0
DWIDTH 9 0
BBX 6 10 1 -3
BITMAP
7C
84
80
78
04
84
F8
20
10
70
ENDCHAR
STARTCHAR Scaron
ENCODING 352
SWIDTH 600 0
DWIDTH 9 0
BBX 6 12 1 0
BITMAP
28
10
00
74
8C
84
80
78
04
84
C4
B8
ENDCHAR
STARTCHAR scaron
ENCODING 353
SWIDTH 600 0
DWIDTH 9 0
BBX 6 10 1 0
BITMAP
28
10
00
7C
84
80
78
04
84
F8
ENDCHAR
STARTCHAR Tcommaaccent
ENCODING 354
SWIDTH 600 0
DWIDTH 9 0
BBX 7 12 1 -3
BITMAP
FE
92
92
10
10
10
10
10
7C
10
08
38
ENDCHAR
STARTCHAR tcommaaccent
ENCODING 355
SWIDTH 600 0
DWIDTH 9 0
BBX 7 12 0 -3
BITMAP
20
20
FC
20
20
20
20
22
1C
10
08
38
ENDCHAR
STARTCHAR Tcaron
ENCODING 356
SWIDTH 600 0
DWIDTH 9 0
BBX 7 12 1 0
BITMAP
28
10
00
FE
92
92
10
10
10
10
10
7C
ENDCHAR
STARTCHAR tcaron
ENCODING 357
SWIDTH 600 0
DWIDTH 9 0
BBX 7 12 0 0
BITMAP
28
10
00
20
20
FC
20
20
20
20
22
1C
ENDCHAR
STARTCHAR Tbar
ENCODING 358
SWIDTH 600 0
DWIDTH 9 0
BBX 7 9 1 0
BITMAP
FE
92
92
10
7C
10
10
10
7C
ENDCHAR
STARTCHAR tbar
ENCODING 359
SWIDTH 600 0
DWIDTH 9 0
BBX 7 9 0 0
BITMAP
20
20
FC
20
20
7C
20
22
1C
ENDCHAR
STARTCHAR Utilde
ENCODING 360
SWIDTH 600 0
DWIDTH 9 0
BBX 8 12 0 0
BITMAP
1A
2C
00
E7
42
42
42
42
42
42
42
3C
ENDCHAR
STARTCHAR utilde
ENCODING 361
SWIDTH 600 0
DWIDTH 9 0
BBX 8 10 0 0
BITMAP
1A
2C
00
C6
42
42
42
42
46
3B
ENDCHAR
STARTCHAR Umacron
ENCODING 362
SWIDTH 600 0
DWIDTH 9 0
BBX 8 11 0 0
BITMAP
3C
00
E7
42
42
42
42
42
42
42
3C
ENDCHAR
STARTCHAR umacron
ENCODING 363
SWIDTH 600 0
DWIDTH 9 0
BBX 8 9 0 0
BITMAP
3C
00
C6
42
42
42
42
46
3B
ENDCHAR
STARTCHAR Ubreve
ENCODING 364
SWIDTH 600 0
DWIDTH 9 0
BBX 8 12 0 0
BITMAP
22
1C
00
E7
42
42
42
42
42
42
42
3C
ENDCHAR
STARTCHAR ubreve
ENCODING 365
SWIDTH 600 0
DWIDTH 9 0
BBX 8 10 0 0
BITMAP
44
38
00
C6
42
42
42
42
46
3B
ENDCHAR
STARTCHAR Uring
ENCODING 366
SWIDTH 600 0
DWIDTH 9 0
BBX 8 13 0 0
BITMAP
18
24
18
00
E7
42
42
42
42
42
42
42
3C
ENDCHAR
STARTCHAR uring
ENCODING 367
SWIDTH 600 0
DWIDTH 9 0
BBX 8 11 0 0
BITMAP
18
24
18
00
C6
42
42
42
42
46
3B
ENDCHAR
STARTCHAR Uhungarumlaut
ENCODING 368
SWIDTH 600 0
DWIDTH 9 0
BBX 8 13 0 0
BITMAP
0A
14
28
00
E7
42
42
42
42
42
42
42
3C
ENDCHAR
STARTCHAR uhungarumlaut
ENCODING 369
SWIDTH 600 0
DWIDTH 9 0
BBX 8 11 0 0
BITMAP
0A
14
28
00
C6
42
42
42
42
46
3B
ENDCHAR
STARTCHAR Uogonek
ENCODING 370
SWIDTH 600 0
DWIDTH 9 0
BBX 8 12 0 -3
BITMAP
E7
42
42
42
42
42
42
42
3C
18
20
18
ENDCHAR
STARTCHAR uogonek
ENCODING 371
SWIDTH 600 0
DWIDTH 9 0
BBX 8 10 0 -3
BITMAP
C6
42
42
42
42
46
3B
0C
10
0C
ENDCHAR
STARTCHAR Wcircumflex
ENCODING 372
SWIDTH 600 0
DWIDTH 9 0
BBX 9 12 0 0
BITMAP
0800
1400
0000
E380
4100
4900
4900
5500
5500
2200
2200
2200
ENDCHAR
STARTCHAR wcircumflex
ENCODING 373
SWIDTH 600 0
DWIDTH 9 0
BBX 9 10 0 0
BITMAP
0800
1400
0000
E380
4100
4900
4900
2A00
3600
2200
ENDCHAR
STARTCHAR Ycircumflex
ENCODING 374
SWIDTH 600 0
DWIDTH 9 0
BBX 7 12 0 0
BITMAP
10
28
00
EE
44
44
28
28
10
10
10
7C
ENDCHAR
STARTCHAR ycircumflex
ENCODING 375
SWIDTH 600 0
DWIDTH 9 0
BBX 8 13 0 -3
BITMAP
08
14
00
E7
42
42
24
24
18
08
10
10
78
ENDCHAR
STARTCHAR Ydieresis
ENCODING 376
SWIDTH 600 0
DWIDTH 9 0
BBX 7 11 1 0
BITMAP
6C
00
EE
44
44
28
28
10
10
10
7C
ENDCHAR
STARTCHAR Zacute
ENCODING 377
SWIDTH 600 0
DWIDTH 9 0
BBX 6 12 1 0
BITMAP
0C
30
00
FC
84
88
10
20
20
44
84
FC
ENDCHAR
STARTCHAR zacute
ENCODING 378
SWIDTH 600 0
DWIDTH 9 0
BBX 5 10 2 0
BITMAP
18
60
00
F8
88
10
20
40
88
F8
ENDCHAR
STARTCHAR Zdotaccent
ENCODING 379
SWIDTH 600 0
DWIDTH 9 0
BBX 6 11 1 0
BITMAP
30
00
FC
84
88
10
20
20
44
84
FC
ENDCHAR
STARTCHAR zdotaccent
ENCODING 380
SWIDTH 600 0
DWIDTH 9 0
BBX 5 9 2 0
BITMAP
30
00
F8
88
10
20
40
88
F8
ENDCHAR
STARTCHAR Zcaron
ENCODING 381
SWIDTH 600 0
DWIDTH 9 0
BBX 6 12 1 0
BITMAP
28
10
00
FC
84
88
10
20
20
44
84
FC
ENDCHAR
STARTCHAR zcaron
ENCODING 382
SWIDTH 600 0
DWIDTH 9 0
BBX 5 10 2 0
BITMAP
50
20
00
F8
88
10
20
40
88
F8
ENDCHAR
STARTCHAR uni0186
ENCODING 390
SWIDTH 600 0
DWIDTH 9 0
BBX 7 9 1 0
BITMAP
78
84
02
02
02
02
82
C4
B8
ENDCHAR
STARTCHAR uni0189
ENCODING 393
SWIDTH 600 0
DWIDTH 9 0
BBX 8 9 0 0
BITMAP
FC
42
41
41
F1
41
41
42
FC
ENDCHAR
STARTCHAR uni018E
ENCODING 398
SWIDTH 600 0
DWIDTH 9 0
BBX 7 9 1 0
BITMAP
FE
84
84
24
3C
24
84
84
FE
ENDCHAR
STARTCHAR florin
ENCODING 402
SWIDTH 600 0
DWIDTH 9 0
BBX 7 11 1 -2
BITMAP
0E
10
10
7C
10
10
10
10
10
10
E0
ENDCHAR
STARTCHAR uni0197
ENCODING 407
SWIDTH 600 0
DWIDTH 9 0
BBX 5 9 2 0
BITMAP
F8
20
20
20
F8
20
20
20
F8
ENDCHAR
STARTCHAR uni019A
ENCODING 410
SWIDTH 600 0
DWIDTH 9 0
BBX 5 10 2 0
BITMAP
E0
20
20
20
F8
20
20
20
20
F8
ENDCHAR
STARTCHAR uni019D
ENCODING 413
SWIDTH 600 0
DWIDTH 9 0
BBX 11 12 -3 -3
BITMAP
1CE0
0C40
0A40
0A40
0940
0940
08C0
08C0
0840
0800
1000
E000
ENDCHAR
STARTCHAR uni019F
ENCODING 415
SWIDTH 600 0
DWIDTH 9 0
BBX 8 9 0 0
BITMAP
3C
42
81
81
FF
81
81
42
3C
ENDCHAR
STARTCHAR Ohorn
ENCODING 416
SWIDTH 600 0
DWIDTH 9 0
BBX 11 9 0 0
BITMAP
3C60
4260
81C0
8180
8100
8100
8100
4200
3C00
ENDCHAR
STARTCHAR ohorn
ENCODING 417
SWIDTH 600 0
DWIDTH 9 0
BBX 11 7 0 0
BITMAP
3C60
4260
81C0
8180
8100
4200
3C00
ENDCHAR
STARTCHAR uni01A7
ENCODING 423
SWIDTH 600 0
DWIDTH 9 0
BBX 6 9 1 0
BITMAP
B8
C4
84
04
78
80
84
8C
74
ENDCHAR
STARTCHAR uni01A8
ENCODING 424
SWIDTH 600 0
DWIDTH 9 0
BBX 6 7 1 0
BITMAP
F8
84
04
78
80
84
7C
ENDCHAR
STARTCHAR uni01AE
ENCODING 430
SWIDTH 600 0
DWIDTH 9 0
BBX 8 12 1 -3
BITMAP
FE
92
92
10
10
10
10
10
10
10
08
07
ENDCHAR
STARTCHAR Uhorn
ENCODING 431
SWIDTH 600 0
DWIDTH 9 0
BBX 11 9 0 0
BITMAP
E760
4260
42C0
4280
4200
4200
4200
4200
3C00
ENDCHAR
STARTCHAR uhorn
ENCODING 432
SWIDTH 600 0
DWIDTH 9 0
BBX 11 7 0 0
BITMAP
C660
4260
42C0
4280
4200
4600
3B00
ENDCHAR
STARTCHAR uni01B5
ENCODING 437
SWIDTH 600 0
DWIDTH 9 0
BBX 6 9 1 0
BITMAP
FC
84
88
10
7C
20
44
84
FC
ENDCHAR
STARTCHAR uni01B6
ENCODING 438
SWIDTH 600 0
DWIDTH 9 0
BBX 5 7 2 0
BITMAP
F8
88
10
F8
40
88
F8
ENDCHAR
STARTCHAR uni01BB
ENCODING 443
SWIDTH 600 0
DWIDTH 9 0
BBX 5 10 1 0
BITMAP
70
88
88
08
F8
20
40
80
88
F8
ENDCHAR
STARTCHAR uni01BC
ENCODING 444
SWIDTH 600 0
DWIDTH 9 0
BBX 6 10 1 0
BITMAP
7C
40
40
40
78
04
04
04
84
78
ENDCHAR
STARTCHAR uni01C0
ENCODING 448
SWIDTH 600 0
DWIDTH 9 0
BBX 1 11 3 -2
BITMAP
80
80
80
80
80
80
80
80
80
80
80
ENDCHAR
STARTCHAR uni01C2
ENCODING 450
SWIDTH 600 0
DWIDTH 9 0
BBX 7 11 1 -1
BITMAP
10
10
10
10
FE
10
FE
10
10
10
10
ENDCHAR
STARTCHAR uni01C3
ENCODING 451
SWIDTH 600 0
DWIDTH 9 0
BBX 1 9 3 0
BITMAP
80
80
80
80
80
80
00
80
80
ENDCHAR
STARTCHAR uni01CD
ENCODING 461
SWIDTH 600 0
DWIDTH 9 0
BBX 9 12 -1 0
BITMAP
1400
0800
0000
3800
0800
1400
1400
2200
3E00
4100
4100
F780
ENDCHAR
STARTCHAR uni01CE
ENCODING 462
SWIDTH 600 0
DWIDTH 9 0
BBX 7 10 1 0
BITMAP
28
10
00
78
84
04
7C
84
84
7A
ENDCHAR
STARTCHAR uni01CF
ENCODING 463
SWIDTH 600 0
DWIDTH 9 0
BBX 5 12 2 0
BITMAP
50
20
00
F8
20
20
20
20
20
20
20
F8
ENDCHAR
STARTCHAR uni01D0
ENCODING 464
SWIDTH 600 0
DWIDTH 9 0
BBX 5 10 2 0
BITMAP
50
20
00
E0
20
20
20
20
20
F8
ENDCHAR
STARTCHAR uni01D1
ENCODING 465
SWIDTH 600 0
DWIDTH 9 0
BBX 8 12 0 0
BITMAP
14
08
00
3C
42
81
81
81
81
81
42
3C
ENDCHAR
STARTCHAR uni01D2
ENCODING 466
SWIDTH 600 0
DWIDTH 9 0
BBX 8 10 0 0
BITMAP
14
08
00
3C
42
81
81
81
42
3C
ENDCHAR
STARTCHAR uni01D3
ENCODING 467
SWIDTH 600 0
DWIDTH 9 0
BBX 8 12 0 0
BITMAP
14
08
00
E7
42
42
42
42
42
42
42
3C
ENDCHAR
STARTCHAR uni01D4
ENCODING 468
SWIDTH 600 0
DWIDTH 9 0
BBX 8 10 0 0
BITMAP
28
10
00
C6
42
42
42
42
46
3B
ENDCHAR
STARTCHAR uni01D5
ENCODING 469
SWIDTH 600 0
DWIDTH 9 0
BBX 8 13 0 0
BITMAP
3C
00
66
00
E7
42
42
42
42
42
42
42
3C
ENDCHAR
STARTCHAR uni01D6
ENCODING 470
SWIDTH 600 0
DWIDTH 9 0
BBX 8 11 0 0
BITMAP
3C
00
6C
00
C6
42
42
42
42
46
3B
ENDCHAR
STARTCHAR uni01D7
ENCODING 471
SWIDTH 600 0
DWIDTH 9 0
BBX 8 14 0 0
BITMAP
06
18
00
66
00
E7
42
42
42
42
42
42
42
3C
ENDCHAR
STARTCHAR uni01D8
ENCODING 472
SWIDTH 600 0
DWIDTH 9 0
BBX 8 12 0 0
BITMAP
0C
30
00
6C
00
C6
42
42
42
42
46
3B
ENDCHAR
STARTCHAR uni01D9
ENCODING 473
SWIDTH 600 0
DWIDTH 9 0
BBX 8 14 0 0
BITMAP
14
08
00
66
00
E7
42
42
42
42
42
42
42
3C
ENDCHAR
STARTCHAR uni01DA
ENCODING 474
SWIDTH 600 0
DWIDTH 9 0
BBX 8 12 0 0
BITMAP
28
10
00
6C
00
C6
42
42
42
42
46
3B
ENDCHAR
STARTCHAR uni01DB
ENCODING 475
SWIDTH 600 0
DWIDTH 9 0
BBX 8 14 0 0
BITMAP
60
18
00
66
00
E7
42
42
42
42
42
42
42
3C
ENDCHAR
STARTCHAR uni01DC
ENCODING 476
SWIDTH 600 0
DWIDTH 9 0
BBX 8 12 0 0
BITMAP
60
18
00
6C
00
C6
42
42
42
42
46
3B
ENDCHAR
STARTCHAR uni01DD
ENCODING 477
SWIDTH 600 0
DWIDTH 9 0
BBX 7 7 1 0
BITMAP
78
84
02
FE
82
44
38
ENDCHAR
STARTCHAR uni01DE
ENCODING 478
SWIDTH 600 0
DWIDTH 9 0
BBX 9 13 0 0
BITMAP
3C00
0000
3600
0000
3800
0800
1400
1400
2200
3E00
4100
4100
F780
ENDCHAR
STARTCHAR uni01DF
ENCODING 479
SWIDTH 600 0
DWIDTH 9 0
BBX 7 11 1 0
BITMAP
78
00
6C
00
78
84
04
7C
84
8C
76
ENDCHAR
STARTCHAR uni01E0
ENCODING 480
SWIDTH 600 0
DWIDTH 9 0
BBX 9 13 -1 0
BITMAP
3C00
0000
1800
0000
3800
0800
1400
1400
2200
3E00
4100
4100
F780
ENDCHAR
STARTCHAR uni01E1
ENCODING 481
SWIDTH 600 0
DWIDTH 9 0
BBX 7 11 1 0
BITMAP
78
00
30
00
78
84
04
7C
84
84
7A
ENDCHAR
STARTCHAR uni01E2
ENCODING 482
SWIDTH 600 0
DWIDTH 9 0
BBX 9 11 -1 0
BITMAP
1E00
0000
1F80
0C80
1400
1480
2780
3C80
4400
4480
EF80
ENDCHAR
STARTCHAR uni01E3
ENCODING 483
SWIDTH 600 0
DWIDTH 9 0
BBX 8 9 0 0
BITMAP
3C
00
76
89
09
7F
88
89
76
ENDCHAR
STARTCHAR uni01E4
ENCODING 484
SWIDTH 600 0
DWIDTH 9 0
BBX 9 9 0 0
BITMAP
3A00
4600
8200
8000
8000
8F80
8200
4200
3C00
ENDCHAR
STARTCHAR uni01E5
ENCODING 485
SWIDTH 600 0
DWIDTH 9 0
BBX 8 10 0 -3
BITMAP
3B
46
82
82
82
46
3A
FF
04
78
ENDCHAR
STARTCHAR Gcaron
ENCODING 486
SWIDTH 600 0
DWIDTH 9 0
BBX 8 12 0 0
BITMAP
14
08
00
3A
46
82
80
80
8F
82
42
3C
ENDCHAR
STARTCHAR gcaron
ENCODING 487
SWIDTH 600 0
DWIDTH 9 0
BBX 8 13 0 -3
BITMAP
14
08
00
3B
46
82
82
82
46
3A
02
04
78
ENDCHAR
STARTCHAR uni01E8
ENCODING 488
SWIDTH 600 0
DWIDTH 9 0
BBX 8 12 0 0
BITMAP
28
10
00
EE
44
48
50
70
48
44
44
E3
ENDCHAR
STARTCHAR uni01E9
ENCODING 489
SWIDTH 600 0
DWIDTH 9 0
BBX 7 13 1 0
BITMAP
50
20
00
C0
40
40
4E
48
50
60
50
48
CE
ENDCHAR
STARTCHAR uni01EA
ENCODING 490
SWIDTH 600 0
DWIDTH 9 0
BBX 8 12 0 -3
BITMAP
3C
42
81
81
81
81
81
42
3C
18
20
18
ENDCHAR
STARTCHAR uni01EB
ENCODING 491
SWIDTH 600 0
DWIDTH 9 0
BBX 8 10 0 -3
BITMAP
3C
42
81
81
81
42
3C
18
20
18
ENDCHAR
STARTCHAR uni01EC
ENCODING 492
SWIDTH 600 0
DWIDTH 9 0
BBX 8 14 0 -3
BITMAP
3C
00
3C
42
81
81
81
81
81
42
3C
18
20
18
ENDCHAR
STARTCHAR uni01ED
ENCODING 493
SWIDTH 600 0
DWIDTH 9 0
BBX 8 12 0 -3
BITMAP
3C
00
3C
42
81
81
81
42
3C
18
20
18
ENDCHAR
STARTCHAR uni01F0
ENCODING 496
SWIDTH 600 0
DWIDTH 9 0
BBX 5 13 1 -3
BITMAP
50
20
00
F8
08
08
08
08
08
08
08
10
E0
ENDCHAR
STARTCHAR uni01F4
ENCODING 500
SWIDTH 600 0
DWIDTH 9 0
BBX 8 12 0 0
BITMAP
06
18
00
3A
46
82
80
80
8F
82
42
3C
ENDCHAR
STARTCHAR uni01F5
ENCODING 501
SWIDTH 600 0
DWIDTH 9 0
BBX 8 13 0 -3
BITMAP
06
18
00
3B
46
82
82
82
46
3A
02
04
78
ENDCHAR
STARTCHAR uni01F8
ENCODING 504
SWIDTH 600 0
DWIDTH 9 0
BBX 8 12 0 0
BITMAP
60
18
00
E7
62
52
52
4A
4A
46
46
E2
ENDCHAR
STARTCHAR uni01F9
ENCODING 505
SWIDTH 600 0
DWIDTH 9 0
BBX 8 10 0 0
BITMAP
60
18
00
DC
62
42
42
42
42
E7
ENDCHAR
STARTCHAR Aringacute
ENCODING 506
SWIDTH 600 0
DWIDTH 9 0
BBX 9 15 0 0
BITMAP
0600
1800
0000
1800
2400
1800
3800
0800
1400
1400
2200
3E00
4100
4100
F780
ENDCHAR
STARTCHAR aringacute
ENCODING 507
SWIDTH 600 0
DWIDTH 9 0
BBX 7 13 1 0
BITMAP
0C
30
00
30
48
30
78
84
04
7C
84
8C
76
ENDCHAR
STARTCHAR AEacute
ENCODING 508
SWIDTH 600 0
DWIDTH 9 0
BBX 9 12 -1 0
BITMAP
0300
0C00
0000
1F80
0C80
1400
1480
2780
3C80
4400
4480
EF80
ENDCHAR
STARTCHAR aeacute
ENCODING 509
SWIDTH 600 0
DWIDTH 9 0
BBX 8 10 0 0
BITMAP
06
18
00
76
89
09
7F
88
89
76
ENDCHAR
STARTCHAR Oslashacute
ENCODING 510
SWIDTH 600 0
DWIDTH 9 0
BBX 9 12 -1 0
BITMAP
0300
0C00
0000
1E80
2100
4280
4480
4880
5080
2080
6100
9E00
ENDCHAR
STARTCHAR oslashacute
ENCODING 511
SWIDTH 600 0
DWIDTH 9 0
BBX 8 10 0 0
BITMAP
06
18
00
3D
46
89
91
A1
42
BC
ENDCHAR
STARTCHAR uni0200
ENCODING 512
SWIDTH 600 0
DWIDTH 9 0
BBX 9 13 -1 0
BITMAP
5000
2800
1400
0000
3800
0800
1400
1400
2200
3E00
4100
4100
F780
ENDCHAR
STARTCHAR uni0201
ENCODING 513
SWIDTH 600 0
DWIDTH 9 0
BBX 7 11 1 0
BITMAP
A0
50
28
00
78
84
04
7C
84
84
7A
ENDCHAR
STARTCHAR uni0202
ENCODING 514
SWIDTH 600 0
DWIDTH 9 0
BBX 9 12 -1 0
BITMAP
1C00
2200
0000
3800
0800
1400
1400
2200
3E00
4100
4100
F780
ENDCHAR
STARTCHAR uni0203
ENCODING 515
SWIDTH 600 0
DWIDTH 9 0
BBX 7 10 1 0
BITMAP
38
44
00
78
84
04
7C
84
84
7A
ENDCHAR
STARTCHAR uni0204
ENCODING 516
SWIDTH 600 0
DWIDTH 9 0
BBX 7 13 1 0
BITMAP
A0
50
28
00
FE
42
42
48
78
48
42
42
FE
ENDCHAR
STARTCHAR uni0205
ENCODING 517
SWIDTH 600 0
DWIDTH 9 0
BBX 7 11 1 0
BITMAP
A0
50
28
00
38
44
82
FE
80
42
3C
ENDCHAR
STARTCHAR uni0206
ENCODING 518
SWIDTH 600 0
DWIDTH 9 0
BBX 7 12 1 0
BITMAP
38
44
00
FE
42
42
48
78
48
42
42
FE
ENDCHAR
STARTCHAR uni0207
ENCODING 519
SWIDTH 600 0
DWIDTH 9 0
BBX 7 10 1 0
BITMAP
38
44
00
38
44
82
FE
80
42
3C
ENDCHAR
STARTCHAR uni0208
ENCODING 520
SWIDTH 600 0
DWIDTH 9 0
BBX 6 13 1 0
BITMAP
A0
50
28
00
7C
10
10
10
10
10
10
10
7C
ENDCHAR
STARTCHAR uni0209
ENCODING 521
SWIDTH 600 0
DWIDTH 9 0
BBX 6 11 1 0
BITMAP
A0
50
28
00
70
10
10
10
10
10
7C
ENDCHAR
STARTCHAR uni020A
ENCODING 522
SWIDTH 600 0
DWIDTH 9 0
BBX 5 12 2 0
BITMAP
70
88
00
F8
20
20
20
20
20
20
20
F8
ENDCHAR
STARTCHAR uni020B
ENCODING 523
SWIDTH 600 0
DWIDTH 9 0
BBX 5 10 2 0
BITMAP
70
88
00
E0
20
20
20
20
20
F8
ENDCHAR
STARTCHAR uni020C
ENCODING 524
SWIDTH 600 0
DWIDTH 9 0
BBX 8 13 0 0
BITMAP
50
28
14
00
3C
42
81
81
81
81
81
42
3C
ENDCHAR
STARTCHAR uni020D
ENCODING 525
SWIDTH 600 0
DWIDTH 9 0
BBX 8 11 0 0
BITMAP
50
28
14
00
3C
42
81
81
81
42
3C
ENDCHAR
STARTCHAR uni020E
ENCODING 526
SWIDTH 600 0
DWIDTH 9 0
BBX 8 12 0 0
BITMAP
1C
22
00
3C
42
81
81
81
81
81
42
3C
ENDCHAR
STARTCHAR uni020F
ENCODING 527
SWIDTH 600 0
DWIDTH 9 0
BBX 8 10 0 0
BITMAP
1C
22
00
3C
42
81
81
81
42
3C
ENDCHAR
STARTCHAR uni0210
ENCODING 528
SWIDTH 600 0
DWIDTH 9 0
BBX 8 13 0 0
BITMAP
A0
50
28
00
FC
42
42
42
44
78
44
42
E1
ENDCHAR
STARTCHAR uni0211
ENCODING 529
SWIDTH 600 0
DWIDTH 9 0
BBX 7 11 1 0
BITMAP
A0
50
28
00
CC
52
60
40
40
40
F8
ENDCHAR
STARTCHAR uni0212
ENCODING 530
SWIDTH 600 0
DWIDTH 9 0
BBX 8 12 0 0
BITMAP
38
44
00
FC
42
42
42
44
78
44
42
E1
ENDCHAR
STARTCHAR uni0213
ENCODING 531
SWIDTH 600 0
DWIDTH 9 0
BBX 7 10 1 0
BITMAP
38
44
00
CC
52
60
40
40
40
F8
ENDCHAR
STARTCHAR uni0214
ENCODING 532
SWIDTH 600 0
DWIDTH 9 0
BBX 8 13 0 0
BITMAP
50
28
14
00
E7
42
42
42
42
42
42
42
3C
ENDCHAR
STARTCHAR uni0215
ENCODING 533
SWIDTH 600 0
DWIDTH 9 0
BBX 8 11 0 0
BITMAP
50
28
14
00
C6
42
42
42
42
46
3B
ENDCHAR
STARTCHAR uni0216
ENCODING 534
SWIDTH 600 0
DWIDTH 9 0
BBX 8 12 0 0
BITMAP
1C
22
00
E7
42
42
42
42
42
42
42
3C
ENDCHAR
STARTCHAR uni0217
ENCODING 535
SWIDTH 600 0
DWIDTH 9 0
BBX 8 10 0 0
BITMAP
38
44
00
C6
42
42
42
42
46
3B
ENDCHAR
STARTCHAR Scommaaccent
ENCODING 536
SWIDTH 600 0
DWIDTH 9 0
BBX 6 14 1 -5
BITMAP
74
8C
84
80
78
04
84
C4
B8
00
30
30
60
40
ENDCHAR
STARTCHAR scommaaccent
ENCODING 537
SWIDTH 600 0
DWIDTH 9 0
BBX 6 12 1 -5
BITMAP
7C
84
80
78
04
84
F8
00
30
30
60
40
ENDCHAR
STARTCHAR Tcommaaccent
ENCODING 538
SWIDTH 600 0
DWIDTH 9 0
BBX 7 14 1 -5
BITMAP
FE
92
92
10
10
10
10
10
7C
00
18
18
30
20
ENDCHAR
STARTCHAR tcommaaccent
ENCODING 539
SWIDTH 600 0
DWIDTH 9 0
BBX 7 14 0 -5
BITMAP
20
20
FC
20
20
20
20
22
1C
00
18
18
30
20
ENDCHAR
STARTCHAR uni021E
ENCODING 542
SWIDTH 600 0
DWIDTH 9 0
BBX 8 12 0 0
BITMAP
14
08
00
E7
42
42
42
7E
42
42
42
E7
ENDCHAR
STARTCHAR uni021F
ENCODING 543
SWIDTH 600 0
DWIDTH 9 0
BBX 8 13 0 0
BITMAP
50
20
00
C0
40
40
5C
62
42
42
42
42
E7
ENDCHAR
STARTCHAR uni0226
ENCODING 550
SWIDTH 600 0
DWIDTH 9 0
BBX 9 11 -1 0
BITMAP
1800
0000
3800
0800
1400
1400
2200
3E00
4100
4100
F780
ENDCHAR
STARTCHAR uni0227
ENCODING 551
SWIDTH 600 0
DWIDTH 9 0
BBX 7 9 1 0
BITMAP
30
00
78
84
04
7C
84
84
7A
ENDCHAR
STARTCHAR uni0228
ENCODING 552
SWIDTH 600 0
DWIDTH 9 0
BBX 7 12 1 -3
BITMAP
FE
42
42
48
78
48
42
42
FE
10
08
38
ENDCHAR
STARTCHAR uni0229
ENCODING 553
SWIDTH 600 0
DWIDTH 9 0
BBX 7 10 1 -3
BITMAP
38
44
82
FE
80
42
3C
10
08
38
ENDCHAR
STARTCHAR uni022A
ENCODING 554
SWIDTH 600 0
DWIDTH 9 0
BBX 8 13 0 0
BITMAP
3C
00
66
00
3C
42
81
81
81
81
81
42
3C
ENDCHAR
STARTCHAR uni022B
ENCODING 555
SWIDTH 600 0
DWIDTH 9 0
BBX 8 11 0 0
BITMAP
3C
00
6C
00
3C
42
81
81
81
42
3C
ENDCHAR
STARTCHAR uni022C
ENCODING 556
SWIDTH 600 0
DWIDTH 9 0
BBX 8 14 0 0
BITMAP
3C
00
1A
2C
00
3C
42
81
81
81
81
81
42
3C
ENDCHAR
STARTCHAR uni022D
ENCODING 557
SWIDTH 600 0
DWIDTH 9 0
BBX 8 12 0 0
BITMAP
3C
00
1A
2C
00
3C
42
81
81
81
42
3C
ENDCHAR
STARTCHAR uni022E
ENCODING 558
SWIDTH 600 0
DWIDTH 9 0
BBX 8 11 0 0
BITMAP
18
00
3C
42
81
81
81
81
81
42
3C
ENDCHAR
STARTCHAR uni022F
ENCODING 559
SWIDTH 600 0
DWIDTH 9 0
BBX 8 9 0 0
BITMAP
18
00
3C
42
81
81
81
42
3C
ENDCHAR
STARTCHAR uni0230
ENCODING 560
SWIDTH 600 0
DWIDTH 9 0
BBX 8 13 0 0
BITMAP
3C
00
18
00
3C
42
81
81
81
81
81
42
3C
ENDCHAR
STARTCHAR uni0231
ENCODING 561
SWIDTH 600 0
DWIDTH 9 0
BBX 8 11 0 0
BITMAP
3C
00
18
00
3C
42
81
81
81
42
3C
ENDCHAR
STARTCHAR uni0232
ENCODING 562
SWIDTH 600 0
DWIDTH 9 0
BBX 7 11 0 0
BITMAP
3C
00
EE
44
44
28
28
10
10
10
7C
ENDCHAR
STARTCHAR uni0233
ENCODING 563
SWIDTH 600 0
DWIDTH 9 0
BBX 8 12 0 -3
BITMAP
3C
00
E7
42
42
24
24
18
08
10
10
78
ENDCHAR
STARTCHAR uni0250
ENCODING 592
SWIDTH 600 0
DWIDTH 9 0
BBX 7 7 1 0
BITMAP
BC
42
42
7C
40
42
3C
ENDCHAR
STARTCHAR uni0254
ENCODING 596
SWIDTH 600 0
DWIDTH 9 0
BBX 7 7 1 0
BITMAP
B8
C4
82
02
02
84
78
ENDCHAR
STARTCHAR uni0258
ENCODING 600
SWIDTH 600 0
DWIDTH 9 0
BBX 7 7 1 0
BITMAP
38
44
82
FE
02
84
78
ENDCHAR
STARTCHAR uni0259
ENCODING 601
SWIDTH 600 0
DWIDTH 9 0
BBX 7 7 1 0
BITMAP
78
84
02
FE
82
44
38
ENDCHAR
STARTCHAR uni025F
ENCODING 607
SWIDTH 600 0
DWIDTH 9 0
BBX 7 10 1 -3
BITMAP
3E
08
08
08
08
08
7E
08
08
F0
ENDCHAR
STARTCHAR uni0265
ENCODING 613
SWIDTH 600 0
DWIDTH 9 0
BBX 8 10 0 -3
BITMAP
E7
42
42
42
42
46
3A
02
02
03
ENDCHAR
STARTCHAR uni0275
ENCODING 629
SWIDTH 600 0
DWIDTH 9 0
BBX 8 7 0 0
BITMAP
3C
42
81
FF
81
42
3C
ENDCHAR
STARTCHAR uni0279
ENCODING 633
SWIDTH 600 0
DWIDTH 9 0
BBX 7 7 1 0
BITMAP
3E
04
04
04
0C
94
66
ENDCHAR
STARTCHAR uni0287
ENCODING 647
SWIDTH 600 0
DWIDTH 9 0
BBX 7 9 0 0
BITMAP
70
88
08
08
08
08
7E
08
08
ENDCHAR
STARTCHAR uni0288
ENCODING 648
SWIDTH 600 0
DWIDTH 9 0
BBX 7 12 0 -3
BITMAP
20
20
FC
20
20
20
20
20
20
20
10
0E
ENDCHAR
STARTCHAR uni0289
ENCODING 649
SWIDTH 600 0
DWIDTH 9 0
BBX 8 7 0 0
BITMAP
C6
42
42
FF
42
46
3B
ENDCHAR
STARTCHAR uni028C
ENCODING 652
SWIDTH 600 0
DWIDTH 9 0
BBX 8 7 0 0
BITMAP
18
18
24
24
42
42
E7
ENDCHAR
STARTCHAR uni028D
ENCODING 653
SWIDTH 600 0
DWIDTH 9 0
BBX 9 7 0 0
BITMAP
2200
3600
2A00
4900
4900
4100
E380
ENDCHAR
STARTCHAR uni028E
ENCODING 654
SWIDTH 600 0
DWIDTH 9 0
BBX 8 10 0 0
BITMAP
1E
08
08
10
18
24
24
42
42
E7
ENDCHAR
STARTCHAR uni029E
ENCODING 670
SWIDTH 600 0
DWIDTH 9 0
BBX 7 10 1 -3
BITMAP
E6
24
14
0C
14
24
E4
04
04
06
ENDCHAR
STARTCHAR uni02BB
ENCODING 699
SWIDTH 600 0
DWIDTH 9 0
BBX 3 4 2 6
BITMAP
C0
C0
60
20
ENDCHAR
STARTCHAR afii57929
ENCODING 700
SWIDTH 600 0
DWIDTH 9 0
BBX 3 4 2 6
BITMAP
60
60
C0
80
ENDCHAR
STARTCHAR afii64937
ENCODING 701
SWIDTH 600 0
DWIDTH 9 0
BBX 3 4 2 6
BITMAP
C0
C0
60
20
ENDCHAR
STARTCHAR circumflex
ENCODING 710
SWIDTH 600 0
DWIDTH 9 0
BBX 3 2 3 8
BITMAP
40
A0
ENDCHAR
STARTCHAR caron
ENCODING 711
SWIDTH 600 0
DWIDTH 9 0
BBX 3 2 3 7
BITMAP
A0
40
ENDCHAR
STARTCHAR uni02C8
ENCODING 712
SWIDTH 600 0
DWIDTH 9 0
BBX 1 4 3 5
BITMAP
80
80
80
80
ENDCHAR
STARTCHAR macron
ENCODING 713
SWIDTH 600 0
DWIDTH 9 0
BBX 4 1 2 8
BITMAP
F0
ENDCHAR
STARTCHAR uni02CA
ENCODING 714
SWIDTH 600 0
DWIDTH 9 0
BBX 4 2 2 8
BITMAP
30
C0
ENDCHAR
STARTCHAR uni02CB
ENCODING 715
SWIDTH 600 0
DWIDTH 9 0
BBX 4 2 2 8
BITMAP
C0
30
ENDCHAR
STARTCHAR uni02CD
ENCODING 717
SWIDTH 600 0
DWIDTH 9 0
BBX 4 1 2 -2
BITMAP
F0
ENDCHAR
STARTCHAR uni02CE
ENCODING 718
SWIDTH 600 0
DWIDTH 9 0
BBX 4 2 2 -3
BITMAP
C0
30
ENDCHAR
STARTCHAR uni02CF
ENCODING 719
SWIDTH 600 0
DWIDTH 9 0
BBX 4 2 2 -3
BITMAP
30
C0
ENDCHAR
STARTCHAR breve
ENCODING 728
SWIDTH 600 0
DWIDTH 9 0
BBX 5 2 2 7
BITMAP
88
70
ENDCHAR
STARTCHAR dotaccent
ENCODING 729
SWIDTH 600 0
DWIDTH 9 0
BBX 2 1 3 8
BITMAP
C0
ENDCHAR
STARTCHAR ring
ENCODING 730
SWIDTH 600 0
DWIDTH 9 0
BBX 4 3 2 7
BITMAP
60
90
60
ENDCHAR
STARTCHAR ogonek
ENCODING 731
SWIDTH 600 0
DWIDTH 9 0
BBX 3 3 2 -3
BITMAP
60
80
60
ENDCHAR
STARTCHAR tilde
ENCODING 732
SWIDTH 600 0
DWIDTH 9 0
BBX 5 2 2 7
BITMAP
68
B0
ENDCHAR
STARTCHAR hungarumlaut
ENCODING 733
SWIDTH 600 0
DWIDTH 9 0
BBX 5 3 2 7
BITMAP
28
50
A0
ENDCHAR
STARTCHAR uni02EE
ENCODING 750
SWIDTH 600 0
DWIDTH 9 0
BBX 6 4 1 5
BITMAP
6C
6C
D8
90
ENDCHAR
STARTCHAR uni037E
ENCODING 894
SWIDTH 600 0
DWIDTH 9 0
BBX 3 9 2 -2
BITMAP
60
60
00
00
00
60
60
C0
80
ENDCHAR
STARTCHAR tonos
ENCODING 900
SWIDTH 600 0
DWIDTH 9 0
BBX 4 2 2 8
BITMAP
30
C0
ENDCHAR
STARTCHAR dieresistonos
ENCODING 901
SWIDTH 600 0
DWIDTH 9 0
BBX 5 4 2 8
BITMAP
18
60
00
D8
ENDCHAR
STARTCHAR anoteleia
ENCODING 903
SWIDTH 600 0
DWIDTH 9 0
BBX 2 2 3 3
BITMAP
C0
C0
ENDCHAR
STARTCHAR mu
ENCODING 956
SWIDTH 600 0
DWIDTH 9 0
BBX 8 10 0 -3
BITMAP
C6
42
42
42
42
46
7B
40
40
40
ENDCHAR
STARTCHAR uni1E00
ENCODING 7680
SWIDTH 600 0
DWIDTH 9 0
BBX 9 13 -1 -4
BITMAP
3800
0800
1400
1400
2200
3E00
4100
4100
F780
0000
0C00
1200
0C00
ENDCHAR
STARTCHAR uni1E01
ENCODING 7681
SWIDTH 600 0
DWIDTH 9 0
BBX 7 11 1 -4
BITMAP
78
84
04
7C
84
84
7A
00
18
24
18
ENDCHAR
STARTCHAR uni1E02
ENCODING 7682
SWIDTH 600 0
DWIDTH 9 0
BBX 7 11 0 0
BITMAP
30
00
FC
42
42
42
7C
42
42
42
FC
ENDCHAR
STARTCHAR uni1E03
ENCODING 7683
SWIDTH 600 0
DWIDTH 9 0
BBX 8 12 0 0
BITMAP
60
00
C0
40
40
5C
62
41
41
41
62
DC
ENDCHAR
STARTCHAR uni1E04
ENCODING 7684
SWIDTH 600 0
DWIDTH 9 0
BBX 7 11 0 -2
BITMAP
FC
42
42
42
7C
42
42
42
FC
00
30
ENDCHAR
STARTCHAR uni1E05
ENCODING 7685
SWIDTH 600 0
DWIDTH 9 0
BBX 8 12 0 -2
BITMAP
C0
40
40
5C
62
41
41
41
62
DC
00
18
ENDCHAR
STARTCHAR uni1E06
ENCODING 7686
SWIDTH 600 0
DWIDTH 9 0
BBX 7 11 0 -2
BITMAP
FC
42
42
42
7C
42
42
42
FC
00
78
ENDCHAR
STARTCHAR uni1E07
ENCODING 7687
SWIDTH 600 0
DWIDTH 9 0
BBX 8 12 0 -2
BITMAP
C0
40
40
5C
62
41
41
41
62
DC
00
3C
ENDCHAR
STARTCHAR uni1E08
ENCODING 7688
SWIDTH 600 0
DWIDTH 9 0
BBX 7 15 1 -3
BITMAP
0C
30
00
3A
46
82
80
80
80
80
42
3C
10
08
38
ENDCHAR
STARTCHAR uni1E09
ENCODING 7689
SWIDTH 600 0
DWIDTH 9 0
BBX 7 13 1 -3
BITMAP
06
18
00
3A
46
82
80
80
42
3C
10
08
38
ENDCHAR
STARTCHAR uni1E0A
ENCODING 7690
SWIDTH 600 0
DWIDTH 9 0
BBX 8 11 0 0
BITMAP
18
00
FC
42
41
41
41
41
41
42
FC
ENDCHAR
STARTCHAR uni1E0B
ENCODING 7691
SWIDTH 600 0
DWIDTH 9 0
BBX 8 12 0 0
BITMAP
06
00
06
02
02
3A
46
82
82
82
46
3B
ENDCHAR
STARTCHAR uni1E0C
ENCODING 7692
SWIDTH 600 0
DWIDTH 9 0
BBX 8 11 0 -2
BITMAP
FC
42
41
41
41
41
41
42
FC
00
18
ENDCHAR
STARTCHAR uni1E0D
ENCODING 7693
SWIDTH 600 0
DWIDTH 9 0
BBX 8 12 0 -2
BITMAP
06
02
02
3A
46
82
82
82
46
3B
00
18
ENDCHAR
STARTCHAR uni1E0E
ENCODING 7694
SWIDTH 600 0
DWIDTH 9 0
BBX 8 11 0 -2
BITMAP
FC
42
41
41
41
41
41
42
FC
00
3C
ENDCHAR
STARTCHAR uni1E0F
ENCODING 7695
SWIDTH 600 0
DWIDTH 9 0
BBX 8 12 0 -2
BITMAP
06
02
02
3A
46
82
82
82
46
3B
00
3C
ENDCHAR
STARTCHAR uni1E10
ENCODING 7696
SWIDTH 600 0
DWIDTH 9 0
BBX 8 12 0 -3
BITMAP
FC
42
41
41
41
41
41
42
FC
10
08
38
ENDCHAR
STARTCHAR uni1E11
ENCODING 7697
SWIDTH 600 0
DWIDTH 9 0
BBX 8 13 0 -3
BITMAP
06
02
02
3A
46
82
82
82
46
3B
08
04
1C
ENDCHAR
STARTCHAR uni1E12
ENCODING 7698
SWIDTH 600 0
DWIDTH 9 0
BBX 8 12 0 -3
BITMAP
FC
42
41
41
41
41
41
42
FC
00
10
28
ENDCHAR
STARTCHAR uni1E13
ENCODING 7699
SWIDTH 600 0
DWIDTH 9 0
BBX 8 13 0 -3
BITMAP
06
02
02
3A
46
82
82
82
46
3B
00
08
14
ENDCHAR
STARTCHAR uni1E14
ENCODING 7700
SWIDTH 600 0
DWIDTH 9 0
BBX 7 14 1 0
BITMAP
60
18
00
3C
00
FE
42
42
48
78
48
42
42
FE
ENDCHAR
STARTCHAR uni1E15
ENCODING 7701
SWIDTH 600 0
DWIDTH 9 0
BBX 7 12 1 0
BITMAP
60
18
00
3C
00
38
44
82
FE
80
42
3C
ENDCHAR
STARTCHAR uni1E16
ENCODING 7702
SWIDTH 600 0
DWIDTH 9 0
BBX 7 14 1 0
BITMAP
0C
30
00
3C
00
FE
42
42
48
78
48
42
42
FE
ENDCHAR
STARTCHAR uni1E17
ENCODING 7703
SWIDTH 600 0
DWIDTH 9 0
BBX 7 12 1 0
BITMAP
0C
30
00
3C
00
38
44
82
FE
80
42
3C
ENDCHAR
STARTCHAR uni1E18
ENCODING 7704
SWIDTH 600 0
DWIDTH 9 0
BBX 7 12 1 -3
BITMAP
FE
42
42
48
78
48
42
42
FE
00
10
28
ENDCHAR
STARTCHAR uni1E19
ENCODING 7705
SWIDTH 600 0
DWIDTH 9 0
BBX 7 10 1 -3
BITMAP
38
44
82
FE
80
42
3C
00
10
28
ENDCHAR
STARTCHAR uni1E1A
ENCODING 7706
SWIDTH 600 0
DWIDTH 9 0
BBX 7 12 1 -3
BITMAP
FE
42
42
48
78
48
42
42
FE
00
34
58
ENDCHAR
STARTCHAR uni1E1B
ENCODING 7707
SWIDTH 600 0
DWIDTH 9 0
BBX 7 10 1 -3
BITMAP
38
44
82
FE
80
42
3C
00
34
58
ENDCHAR
STARTCHAR uni1E1C
ENCODING 7708
SWIDTH 600 0
DWIDTH 9 0
BBX 7 15 1 -3
BITMAP
44
38
00
FE
42
42
48
78
48
42
42
FE
10
08
38
ENDCHAR
STARTCHAR uni1E1D
ENCODING 7709
SWIDTH 600 0
DWIDTH 9 0
BBX 7 13 1 -3
BITMAP
44
38
00
38
44
82
FE
80
42
3C
10
08
38
ENDCHAR
STARTCHAR uni1E1E
ENCODING 7710
SWIDTH 600 0
DWIDTH 9 0
BBX 7 11 1 0
BITMAP
18
00
FE
42
42
48
78
48
40
40
F0
ENDCHAR
STARTCHAR uni1E1F
ENCODING 7711
SWIDTH 600 0
DWIDTH 9 0
BBX 7 12 1 0
BITMAP
18
00
1E
20
20
FC
20
20
20
20
20
F8
ENDCHAR
STARTCHAR uni1E20
ENCODING 7712
SWIDTH 600 0
DWIDTH 9 0
BBX 8 11 0 0
BITMAP
3C
00
3A
46
82
80
80
8F
82
42
3C
ENDCHAR
STARTCHAR uni1E21
ENCODING 7713
SWIDTH 600 0
DWIDTH 9 0
BBX 8 12 0 -3
BITMAP
3C
00
3B
46
82
82
82
46
3A
02
04
78
ENDCHAR
STARTCHAR uni1E22
ENCODING 7714
SWIDTH 600 0
DWIDTH 9 0
BBX 8 11 0 0
BITMAP
18
00
E7
42
42
42
7E
42
42
42
E7
ENDCHAR
STARTCHAR uni1E23
ENCODING 7715
SWIDTH 600 0
DWIDTH 9 0
BBX 8 12 0 0
BITMAP
60
00
C0
40
40
5C
62
42
42
42
42
E7
ENDCHAR
STARTCHAR uni1E24
ENCODING 7716
SWIDTH 600 0
DWIDTH 9 0
BBX 8 11 0 -2
BITMAP
E7
42
42
42
7E
42
42
42
E7
00
18
ENDCHAR
STARTCHAR uni1E25
ENCODING 7717
SWIDTH 600 0
DWIDTH 9 0
BBX 8 12 0 -2
BITMAP
C0
40
40
5C
62
42
42
42
42
E7
00
18
ENDCHAR
STARTCHAR uni1E26
ENCODING 7718
SWIDTH 600 0
DWIDTH 9 0
BBX 8 11 0 0
BITMAP
36
00
E7
42
42
42
7E
42
42
42
E7
ENDCHAR
STARTCHAR uni1E27
ENCODING 7719
SWIDTH 600 0
DWIDTH 9 0
BBX 8 12 0 0
BITMAP
D8
00
C0
40
40
5C
62
42
42
42
42
E7
ENDCHAR
STARTCHAR uni1E28
ENCODING 7720
SWIDTH 600 0
DWIDTH 9 0
BBX 8 12 0 -3
BITMAP
E7
42
42
42
7E
42
42
42
E7
08
04
1C
ENDCHAR
STARTCHAR uni1E29
ENCODING 7721
SWIDTH 600 0
DWIDTH 9 0
BBX 8 13 0 -3
BITMAP
C0
40
40
5C
62
42
42
42
42
E7
08
04
1C
ENDCHAR
STARTCHAR uni1E2A
ENCODING 7722
SWIDTH 600 0
DWIDTH 9 0
BBX 8 12 0 -3
BITMAP
E7
42
42
42
7E
42
42
42
E7
00
22
1C
ENDCHAR
STARTCHAR uni1E2B
ENCODING 7723
SWIDTH 600 0
DWIDTH 9 0
BBX 8 13 0 -3
BITMAP
C0
40
40
5C
62
42
42
42
42
E7
00
22
1C
ENDCHAR
STARTCHAR uni1E2C
ENCODING 7724
SWIDTH 600 0
DWIDTH 9 0
BBX 5 12 2 -3
BITMAP
F8
20
20
20
20
20
20
20
F8
00
68
B0
ENDCHAR
STARTCHAR uni1E2D
ENCODING 7725
SWIDTH 600 0
DWIDTH 9 0
BBX 5 13 2 -3
BITMAP
20
20
00
E0
20
20
20
20
20
F8
00
68
B0
ENDCHAR
STARTCHAR uni1E2E
ENCODING 7726
SWIDTH 600 0
DWIDTH 9 0
BBX 5 14 2 0
BITMAP
18
60
00
D8
00
F8
20
20
20
20
20
20
20
F8
ENDCHAR
STARTCHAR uni1E2F
ENCODING 7727
SWIDTH 600 0
DWIDTH 9 0
BBX 5 12 2 0
BITMAP
18
60
00
D8
00
E0
20
20
20
20
20
F8
ENDCHAR
STARTCHAR uni1E30
ENCODING 7728
SWIDTH 600 0
DWIDTH 9 0
BBX 8 12 0 0
BITMAP
0C
30
00
EE
44
48
50
70
48
44
44
E3
ENDCHAR
STARTCHAR uni1E31
ENCODING 7729
SWIDTH 600 0
DWIDTH 9 0
BBX 7 13 1 0
BITMAP
18
60
00
C0
40
40
4E
48
50
60
50
48
CE
ENDCHAR
STARTCHAR uni1E32
ENCODING 7730
SWIDTH 600 0
DWIDTH 9 0
BBX 8 11 0 -2
BITMAP
EE
44
48
50
70
48
44
44
E3
00
18
ENDCHAR
STARTCHAR uni1E33
ENCODING 7731
SWIDTH 600 0
DWIDTH 9 0
BBX 7 12 1 -2
BITMAP
C0
40
40
4E
48
50
60
50
48
CE
00
30
ENDCHAR
STARTCHAR uni1E34
ENCODING 7732
SWIDTH 600 0
DWIDTH 9 0
BBX 8 11 0 -2
BITMAP
EE
44
48
50
70
48
44
44
E3
00
3C
ENDCHAR
STARTCHAR uni1E35
ENCODING 7733
SWIDTH 600 0
DWIDTH 9 0
BBX 7 12 1 -2
BITMAP
C0
40
40
4E
48
50
60
50
48
CE
00
78
ENDCHAR
STARTCHAR uni1E36
ENCODING 7734
SWIDTH 600 0
DWIDTH 9 0
BBX 8 11 0 -2
BITMAP
F8
20
20
20
20
21
21
21
FF
00
18
ENDCHAR
STARTCHAR uni1E37
ENCODING 7735
SWIDTH 600 0
DWIDTH 9 0
BBX 5 12 2 -2
BITMAP
E0
20
20
20
20
20
20
20
20
F8
00
30
ENDCHAR
STARTCHAR uni1E38
ENCODING 7736
SWIDTH 600 0
DWIDTH 9 0
BBX 8 13 0 -2
BITMAP
78
00
F8
20
20
20
20
21
21
21
FF
00
18
ENDCHAR
STARTCHAR uni1E39
ENCODING 7737
SWIDTH 600 0
DWIDTH 9 0
BBX 5 14 2 -2
BITMAP
F0
00
E0
20
20
20
20
20
20
20
20
F8
00
30
ENDCHAR
STARTCHAR uni1E3A
ENCODING 7738
SWIDTH 600 0
DWIDTH 9 0
BBX 8 11 0 -2
BITMAP
F8
20
20
20
20
21
21
21
FF
00
3C
ENDCHAR
STARTCHAR uni1E3B
ENCODING 7739
SWIDTH 600 0
DWIDTH 9 0
BBX 5 12 2 -2
BITMAP
E0
20
20
20
20
20
20
20
20
F8
00
78
ENDCHAR
STARTCHAR uni1E3C
ENCODING 7740
SWIDTH 600 0
DWIDTH 9 0
BBX 8 12 0 -3
BITMAP
F8
20
20
20
20
21
21
21
FF
00
08
14
ENDCHAR
STARTCHAR uni1E3D
ENCODING 7741
SWIDTH 600 0
DWIDTH 9 0
BBX 5 13 2 -3
BITMAP
E0
20
20
20
20
20
20
20
20
F8
00
20
50
ENDCHAR
STARTCHAR uni1E3E
ENCODING 7742
SWIDTH 600 0
DWIDTH 9 0
BBX 9 12 0 0
BITMAP
0600
1800
0000
E380
6300
5500
5500
4900
4900
4100
4100
E380
ENDCHAR
STARTCHAR uni1E3F
ENCODING 7743
SWIDTH 600 0
DWIDTH 9 0
BBX 9 10 0 0
BITMAP
0600
1800
0000
DB00
6D00
4900
4900
4900
4900
ED80
ENDCHAR
STARTCHAR uni1E40
ENCODING 7744
SWIDTH 600 0
DWIDTH 9 0
BBX 9 11 0 0
BITMAP
0C00
0000
E380
6300
5500
5500
4900
4900
4100
4100
E380
ENDCHAR
STARTCHAR uni1E41
ENCODING 7745
SWIDTH 600 0
DWIDTH 9 0
BBX 9 9 0 0
BITMAP
1800
0000
DB00
6D00
4900
4900
4900
4900
ED80
ENDCHAR
STARTCHAR uni1E42
ENCODING 7746
SWIDTH 600 0
DWIDTH 9 0
BBX 9 11 0 -2
BITMAP
E380
6300
5500
5500
4900
4900
4100
4100
E380
0000
0C00
ENDCHAR
STARTCHAR uni1E43
ENCODING 7747
SWIDTH 600 0
DWIDTH 9 0
BBX 9 9 0 -2
BITMAP
DB00
6D00
4900
4900
4900
4900
ED80
0000
1800
ENDCHAR
STARTCHAR uni1E44
ENCODING 7748
SWIDTH 600 0
DWIDTH 9 0
BBX 8 11 0 0
BITMAP
18
00
E7
62
52
52
4A
4A
46
46
E2
ENDCHAR
STARTCHAR uni1E45
ENCODING 7749
SWIDTH 600 0
DWIDTH 9 0
BBX 8 9 0 0
BITMAP
18
00
DC
62
42
42
42
42
E7
ENDCHAR
STARTCHAR uni1E46
ENCODING 7750
SWIDTH 600 0
DWIDTH 9 0
BBX 8 11 0 -2
BITMAP
E7
62
52
52
4A
4A
46
46
E2
00
18
ENDCHAR
STARTCHAR uni1E47
ENCODING 7751
SWIDTH 600 0
DWIDTH 9 0
BBX 8 9 0 -2
BITMAP
DC
62
42
42
42
42
E7
00
18
ENDCHAR
STARTCHAR uni1E48
ENCODING 7752
SWIDTH 600 0
DWIDTH 9 0
BBX 8 11 0 -2
BITMAP
E7
62
52
52
4A
4A
46
46
E2
00
3C
ENDCHAR
STARTCHAR uni1E49
ENCODING 7753
SWIDTH 600 0
DWIDTH 9 0
BBX 8 9 0 -2
BITMAP
DC
62
42
42
42
42
E7
00
3C
ENDCHAR
STARTCHAR uni1E4A
ENCODING 7754
SWIDTH 600 0
DWIDTH 9 0
BBX 8 12 0 -3
BITMAP
E7
62
52
52
4A
4A
46
46
E2
00
10
28
ENDCHAR
STARTCHAR uni1E4B
ENCODING 7755
SWIDTH 600 0
DWIDTH 9 0
BBX 8 10 0 -3
BITMAP
DC
62
42
42
42
42
E7
00
08
14
ENDCHAR
STARTCHAR uni1E4C
ENCODING 7756
SWIDTH 600 0
DWIDTH 9 0
BBX 8 15 0 0
BITMAP
06
18
00
1A
2C
00
3C
42
81
81
81
81
81
42
3C
ENDCHAR
STARTCHAR uni1E4D
ENCODING 7757
SWIDTH 600 0
DWIDTH 9 0
BBX 8 13 0 0
BITMAP
06
18
00
1A
2C
00
3C
42
81
81
81
42
3C
ENDCHAR
STARTCHAR uni1E4E
ENCODING 7758
SWIDTH 600 0
DWIDTH 9 0
BBX 8 14 0 0
BITMAP
36
00
1A
2C
00
3C
42
81
81
81
81
81
42
3C
ENDCHAR
STARTCHAR uni1E4F
ENCODING 7759
SWIDTH 600 0
DWIDTH 9 0
BBX 8 12 0 0
BITMAP
36
00
1A
2C
00
3C
42
81
81
81
42
3C
ENDCHAR
STARTCHAR uni1E50
ENCODING 7760
SWIDTH 600 0
DWIDTH 9 0
BBX 8 14 0 0
BITMAP
60
18
00
3C
00
3C
42
81
81
81
81
81
42
3C
ENDCHAR
STARTCHAR uni1E51
ENCODING 7761
SWIDTH 600 0
DWIDTH 9 0
BBX 8 12 0 0
BITMAP
60
18
00
3C
00
3C
42
81
81
81
42
3C
ENDCHAR
STARTCHAR uni1E52
ENCODING 7762
SWIDTH 600 0
DWIDTH 9 0
BBX 8 14 0 0
BITMAP
06
18
00
3C
00
3C
42
81
81
81
81
81
42
3C
ENDCHAR
STARTCHAR uni1E53
ENCODING 7763
SWIDTH 600 0
DWIDTH 9 0
BBX 8 12 0 0
BITMAP
06
18
00
3C
00
3C
42
81
81
81
42
3C
ENDCHAR
STARTCHAR uni1E54
ENCODING 7764
SWIDTH 600 0
DWIDTH 9 0
BBX 7 12 1 0
BITMAP
0C
30
00
FC
42
42
42
42
7C
40
40
F0
ENDCHAR
STARTCHAR uni1E55
ENCODING 7765
SWIDTH 600 0
DWIDTH 9 0
BBX 8 13 0 -3
BITMAP
0C
30
00
DC
62
41
41
41
62
5C
40
40
F0
ENDCHAR
STARTCHAR uni1E56
ENCODING 7766
SWIDTH 600 0
DWIDTH 9 0
BBX 7 11 1 0
BITMAP
30
00
FC
42
42
42
42
7C
40
40
F0
ENDCHAR
STARTCHAR uni1E57
ENCODING 7767
SWIDTH 600 0
DWIDTH 9 0
BBX 8 12 0 -3
BITMAP
18
00
DC
62
41
41
41
62
5C
40
40
F0
ENDCHAR
STARTCHAR uni1E58
ENCODING 7768
SWIDTH 600 0
DWIDTH 9 0
BBX 8 11 0 0
BITMAP
18
00
FC
42
42
42
44
78
44
42
E1
ENDCHAR
STARTCHAR uni1E59
ENCODING 7769
SWIDTH 600 0
DWIDTH 9 0
BBX 7 9 1 0
BITMAP
30
00
CC
52
60
40
40
40
F8
ENDCHAR
STARTCHAR uni1E5A
ENCODING 7770
SWIDTH 600 0
DWIDTH 9 0
BBX 8 11 0 -2
BITMAP
FC
42
42
42
44
78
44
42
E1
00
18
ENDCHAR
STARTCHAR uni1E5B
ENCODING 7771
SWIDTH 600 0
DWIDTH 9 0
BBX 7 9 1 -2
BITMAP
CC
52
60
40
40
40
F8
00
30
ENDCHAR
STARTCHAR uni1E5C
ENCODING 7772
SWIDTH 600 0
DWIDTH 9 0
BBX 8 13 0 -2
BITMAP
3C
00
FC
42
42
42
44
78
44
42
E1
00
18
ENDCHAR
STARTCHAR uni1E5D
ENCODING 7773
SWIDTH 600 0
DWIDTH 9 0
BBX 7 11 1 -2
BITMAP
78
00
CC
52
60
40
40
40
F8
00
30
ENDCHAR
STARTCHAR uni1E5E
ENCODING 7774
SWIDTH 600 0
DWIDTH 9 0
BBX 8 11 0 -2
BITMAP
FC
42
42
42
44
78
44
42
E1
00
3C
ENDCHAR
STARTCHAR uni1E5F
ENCODING 7775
SWIDTH 600 0
DWIDTH 9 0
BBX 7 9 1 -2
BITMAP
CC
52
60
40
40
40
F8
00
78
ENDCHAR
STARTCHAR uni1E60
ENCODING 7776
SWIDTH 600 0
DWIDTH 9 0
BBX 6 11 1 0
BITMAP
30
00
74
8C
84
80
78
04
84
C4
B8
ENDCHAR
STARTCHAR uni1E61
ENCODING 7777
SWIDTH 600 0
DWIDTH 9 0
BBX 6 9 1 0
BITMAP
30
00
7C
84
80
78
04
84
F8
ENDCHAR
STARTCHAR uni1E62
ENCODING 7778
SWIDTH 600 0
DWIDTH 9 0
BBX 6 11 1 -2
BITMAP
74
8C
84
80
78
04
84
C4
B8
00
30
ENDCHAR
STARTCHAR uni1E63
ENCODING 7779
SWIDTH 600 0
DWIDTH 9 0
BBX 6 9 1 -2
BITMAP
7C
84
80
78
04
84
F8
00
30
ENDCHAR
STARTCHAR uni1E64
ENCODING 7780
SWIDTH 600 0
DWIDTH 9 0
BBX 6 14 1 0
BITMAP
30
00
0C
30
00
74
8C
84
80
78
04
84
C4
B8
ENDCHAR
STARTCHAR uni1E65
ENCODING 7781
SWIDTH 600 0
DWIDTH 9 0
BBX 6 12 1 0
BITMAP
18
00
0C
30
00
7C
84
80
78
04
84
F8
ENDCHAR
STARTCHAR uni1E66
ENCODING 7782
SWIDTH 600 0
DWIDTH 9 0
BBX 6 14 1 0
BITMAP
30
00
28
10
00
74
8C
84
80
78
04
84
C4
B8
ENDCHAR
STARTCHAR uni1E67
ENCODING 7783
SWIDTH 600 0
DWIDTH 9 0
BBX 6 12 1 0
BITMAP
30
00
28
10
00
7C
84
80
78
04
84
F8
ENDCHAR
STARTCHAR uni1E68
ENCODING 7784
SWIDTH 600 0
DWIDTH 9 0
BBX 6 13 1 -2
BITMAP
30
00
74
8C
84
80
78
04
84
C4
B8
00
30
ENDCHAR
STARTCHAR uni1E69
ENCODING 7785
SWIDTH 600 0
DWIDTH 9 0
BBX 6 11 1 -2
BITMAP
30
00
7C
84
80
78
04
84
F8
00
30
ENDCHAR
STARTCHAR uni1E6A
ENCODING 7786
SWIDTH 600 0
DWIDTH 9 0
BBX 7 11 1 0
BITMAP
18
00
FE
92
92
10
10
10
10
10
7C
ENDCHAR
STARTCHAR uni1E6B
ENCODING 7787
SWIDTH 600 0
DWIDTH 9 0
BBX 7 11 0 0
BITMAP
30
00
20
20
FC
20
20
20
20
22
1C
ENDCHAR
STARTCHAR uni1E6C
ENCODING 7788
SWIDTH 600 0
DWIDTH 9 0
BBX 7 11 1 -2
BITMAP
FE
92
92
10
10
10
10
10
7C
00
18
ENDCHAR
STARTCHAR uni1E6D
ENCODING 7789
SWIDTH 600 0
DWIDTH 9 0
BBX 7 11 0 -2
BITMAP
20
20
FC
20
20
20
20
22
1C
00
18
ENDCHAR
STARTCHAR uni1E6E
ENCODING 7790
SWIDTH 600 0
DWIDTH 9 0
BBX 7 11 1 -2
BITMAP
FE
92
92
10
10
10
10
10
7C
00
3C
ENDCHAR
STARTCHAR uni1E6F
ENCODING 7791
SWIDTH 600 0
DWIDTH 9 0
BBX 7 11 0 -2
BITMAP
20
20
FC
20
20
20
20
22
1C
00
3C
ENDCHAR
STARTCHAR uni1E70
ENCODING 7792
SWIDTH 600 0
DWIDTH 9 0
BBX 7 12 1 -3
BITMAP
FE
92
92
10
10
10
10
10
7C
00
10
28
ENDCHAR
STARTCHAR uni1E71
ENCODING 7793
SWIDTH 600 0
DWIDTH 9 0
BBX 7 12 0 -3
BITMAP
20
20
FC
20
20
20
20
22
1C
00
10
28
ENDCHAR
STARTCHAR uni1E72
ENCODING 7794
SWIDTH 600 0
DWIDTH 9 0
BBX 8 11 0 -2
BITMAP
E7
42
42
42
42
42
42
42
3C
00
36
ENDCHAR
STARTCHAR uni1E73
ENCODING 7795
SWIDTH 600 0
DWIDTH 9 0
BBX 8 9 0 -2
BITMAP
C6
42
42
42
42
46
3B
00
36
ENDCHAR
STARTCHAR uni1E74
ENCODING 7796
SWIDTH 600 0
DWIDTH 9 0
BBX 8 12 0 -3
BITMAP
E7
42
42
42
42
42
42
42
3C
00
34
58
ENDCHAR
STARTCHAR uni1E75
ENCODING 7797
SWIDTH 600 0
DWIDTH 9 0
BBX 8 10 0 -3
BITMAP
C6
42
42
42
42
46
3B
00
1A
2C
ENDCHAR
STARTCHAR uni1E76
ENCODING 7798
SWIDTH 600 0
DWIDTH 9 0
BBX 8 12 0 -3
BITMAP
E7
42
42
42
42
42
42
42
3C
00
08
14
ENDCHAR
STARTCHAR uni1E77
ENCODING 7799
SWIDTH 600 0
DWIDTH 9 0
BBX 8 10 0 -3
BITMAP
C6
42
42
42
42
46
3B
00
08
14
ENDCHAR
STARTCHAR uni1E78
ENCODING 7800
SWIDTH 600 0
DWIDTH 9 0
BBX 8 15 0 0
BITMAP
06
18
00
1A
2C
00
E7
42
42
42
42
42
42
42
3C
ENDCHAR
STARTCHAR uni1E79
ENCODING 7801
SWIDTH 600 0
DWIDTH 9 0
BBX 8 13 0 0
BITMAP
06
18
00
1A
2C
00
C6
42
42
42
42
46
3B
ENDCHAR
STARTCHAR uni1E7A
ENCODING 7802
SWIDTH 600 0
DWIDTH 9 0
BBX 8 13 0 0
BITMAP
36
00
3C
00
E7
42
42
42
42
42
42
42
3C
ENDCHAR
STARTCHAR uni1E7B
ENCODING 7803
SWIDTH 600 0
DWIDTH 9 0
BBX 8 11 0 0
BITMAP
6C
00
3C
00
C6
42
42
42
42
46
3B
ENDCHAR
STARTCHAR uni1E7C
ENCODING 7804
SWIDTH 600 0
DWIDTH 9 0
BBX 9 12 0 0
BITMAP
1A00
2C00
0000
E380
4100
4100
2200
2200
1400
1400
0800
0800
ENDCHAR
STARTCHAR uni1E7D
ENCODING 7805
SWIDTH 600 0
DWIDTH 9 0
BBX 8 10 0 0
BITMAP
1A
2C
00
E7
42
42
24
24
18
18
ENDCHAR
STARTCHAR uni1E7E
ENCODING 7806
SWIDTH 600 0
DWIDTH 9 0
BBX 9 11 0 -2
BITMAP
E380
4100
4100
2200
2200
1400
1400
0800
0800
0000
0C00
ENDCHAR
STARTCHAR uni1E7F
ENCODING 7807
SWIDTH 600 0
DWIDTH 9 0
BBX 8 9 0 -2
BITMAP
E7
42
42
24
24
18
18
00
18
ENDCHAR
STARTCHAR Wgrave
ENCODING 7808
SWIDTH 600 0
DWIDTH 9 0
BBX 9 12 0 0
BITMAP
3000
0C00
0000
E380
4100
4900
4900
5500
5500
2200
2200
2200
ENDCHAR
STARTCHAR wgrave
ENCODING 7809
SWIDTH 600 0
DWIDTH 9 0
BBX 9 10 0 0
BITMAP
3000
0C00
0000
E380
4100
4900
4900
2A00
3600
2200
ENDCHAR
STARTCHAR Wacute
ENCODING 7810
SWIDTH 600 0
DWIDTH 9 0
BBX 9 12 0 0
BITMAP
0600
1800
0000
E380
4100
4900
4900
5500
5500
2200
2200
2200
ENDCHAR
STARTCHAR wacute
ENCODING 7811
SWIDTH 600 0
DWIDTH 9 0
BBX 9 10 0 0
BITMAP
0600
1800
0000
E380
4100
4900
4900
2A00
3600
2200
ENDCHAR
STARTCHAR Wdieresis
ENCODING 7812
SWIDTH 600 0
DWIDTH 9 0
BBX 9 11 0 0
BITMAP
3600
0000
E380
4100
4900
4900
5500
5500
2200
2200
2200
ENDCHAR
STARTCHAR wdieresis
ENCODING 7813
SWIDTH 600 0
DWIDTH 9 0
BBX 9 9 0 0
BITMAP
3600
0000
E380
4100
4900
4900
2A00
3600
2200
ENDCHAR
STARTCHAR uni1E86
ENCODING 7814
SWIDTH 600 0
DWIDTH 9 0
BBX 9 11 0 0
BITMAP
0C00
0000
E380
4100
4900
4900
5500
5500
2200
2200
2200
ENDCHAR
STARTCHAR uni1E87
ENCODING 7815
SWIDTH 600 0
DWIDTH 9 0
BBX 9 9 0 0
BITMAP
0C00
0000
E380
4100
4900
4900
2A00
3600
2200
ENDCHAR
STARTCHAR uni1E88
ENCODING 7816
SWIDTH 600 0
DWIDTH 9 0
BBX 9 11 0 -2
BITMAP
E380
4100
4900
4900
5500
5500
2200
2200
2200
0000
0C00
ENDCHAR
STARTCHAR uni1E89
ENCODING 7817
SWIDTH 600 0
DWIDTH 9 0
BBX 9 9 0 -2
BITMAP
E380
4100
4900
4900
2A00
3600
2200
0000
0C00
ENDCHAR
STARTCHAR uni1E8A
ENCODING 7818
SWIDTH 600 0
DWIDTH 9 0
BBX 8 11 0 0
BITMAP
18
00
E7
42
24
24
18
24
24
42
E7
ENDCHAR
STARTCHAR uni1E8B
ENCODING 7819
SWIDTH 600 0
DWIDTH 9 0
BBX 7 9 0 0
BITMAP
18
00
EE
44
28
10
28
44
EE
ENDCHAR
STARTCHAR uni1E8C
ENCODING 7820
SWIDTH 600 0
DWIDTH 9 0
BBX 8 11 0 0
BITMAP
36
00
E7
42
24
24
18
24
24
42
E7
ENDCHAR
STARTCHAR uni1E8D
ENCODING 7821
SWIDTH 600 0
DWIDTH 9 0
BBX 7 9 0 0
BITMAP
6C
00
EE
44
28
10
28
44
EE
ENDCHAR
STARTCHAR uni1E8E
ENCODING 7822
SWIDTH 600 0
DWIDTH 9 0
BBX 7 11 0 0
BITMAP
18
00
EE
44
44
28
28
10
10
10
7C
ENDCHAR
STARTCHAR uni1E8F
ENCODING 7823
SWIDTH 600 0
DWIDTH 9 0
BBX 8 12 0 -3
BITMAP
18
00
E7
42
42
24
24
18
08
10
10
78
ENDCHAR
STARTCHAR uni1E90
ENCODING 7824
SWIDTH 600 0
DWIDTH 9 0
BBX 6 12 1 0
BITMAP
20
50
00
FC
84
88
10
20
20
44
84
FC
ENDCHAR
STARTCHAR uni1E91
ENCODING 7825
SWIDTH 600 0
DWIDTH 9 0
BBX 5 10 2 0
BITMAP
20
50
00
F8
88
10
20
40
88
F8
ENDCHAR
STARTCHAR uni1E92
ENCODING 7826
SWIDTH 600 0
DWIDTH 9 0
BBX 6 11 1 -2
BITMAP
FC
84
88
10
20
20
44
84
FC
00
30
ENDCHAR
STARTCHAR uni1E93
ENCODING 7827
SWIDTH 600 0
DWIDTH 9 0
BBX 5 9 2 -2
BITMAP
F8
88
10
20
40
88
F8
00
30
ENDCHAR
STARTCHAR uni1E94
ENCODING 7828
SWIDTH 600 0
DWIDTH 9 0
BBX 6 11 1 -2
BITMAP
FC
84
88
10
20
20
44
84
FC
00
78
ENDCHAR
STARTCHAR uni1E95
ENCODING 7829
SWIDTH 600 0
DWIDTH 9 0
BBX 5 9 2 -2
BITMAP
F8
88
10
20
40
88
F8
00
78
ENDCHAR
STARTCHAR uni1E96
ENCODING 7830
SWIDTH 600 0
DWIDTH 9 0
BBX 8 12 0 -2
BITMAP
C0
40
40
5C
62
42
42
42
42
E7
00
3C
ENDCHAR
STARTCHAR uni1E97
ENCODING 7831
SWIDTH 600 0
DWIDTH 9 0
BBX 7 11 0 0
BITMAP
6C
00
20
20
FC
20
20
20
20
22
1C
ENDCHAR
STARTCHAR uni1E98
ENCODING 7832
SWIDTH 600 0
DWIDTH 9 0
BBX 9 11 0 0
BITMAP
0C00
1200
0C00
0000
E380
4100
4900
4900
2A00
3600
2200
ENDCHAR
STARTCHAR uni1E99
ENCODING 7833
SWIDTH 600 0
DWIDTH 9 0
BBX 8 14 0 -3
BITMAP
18
24
18
00
E7
42
42
24
24
18
08
10
10
78
ENDCHAR
STARTCHAR uni1EA0
ENCODING 7840
SWIDTH 600 0
DWIDTH 9 0
BBX 9 11 -1 -2
BITMAP
3800
0800
1400
1400
2200
3E00
4100
4100
F780
0000
0C00
ENDCHAR
STARTCHAR uni1EA1
ENCODING 7841
SWIDTH 600 0
DWIDTH 9 0
BBX 7 9 1 -2
BITMAP
78
84
04
7C
84
84
7A
00
18
ENDCHAR
STARTCHAR uni1EA4
ENCODING 7844
SWIDTH 600 0
DWIDTH 9 0
BBX 9 15 0 0
BITMAP
0600
1800
0000
0800
1400
0000
3800
0800
1400
1400
2200
3E00
4100
4100
F780
ENDCHAR
STARTCHAR uni1EA5
ENCODING 7845
SWIDTH 600 0
DWIDTH 9 0
BBX 7 13 1 0
BITMAP
0C
30
00
10
28
00
78
84
04
7C
84
8C
76
ENDCHAR
STARTCHAR uni1EA6
ENCODING 7846
SWIDTH 600 0
DWIDTH 9 0
BBX 9 15 0 0
BITMAP
3000
0C00
0000
0800
1400
0000
3800
0800
1400
1400
2200
3E00
4100
4100
F780
ENDCHAR
STARTCHAR uni1EA7
ENCODING 7847
SWIDTH 600 0
DWIDTH 9 0
BBX 7 13 1 0
BITMAP
60
18
00
10
28
00
78
84
04
7C
84
8C
76
ENDCHAR
STARTCHAR uni1EAA
ENCODING 7850
SWIDTH 600 0
DWIDTH 9 0
BBX 9 15 0 0
BITMAP
1A00
2C00
0000
0800
1400
0000
3800
0800
1400
1400
2200
3E00
4100
4100
F780
ENDCHAR
STARTCHAR uni1EAB
ENCODING 7851
SWIDTH 600 0
DWIDTH 9 0
BBX 7 13 1 0
BITMAP
34
58
00
10
28
00
78
84
04
7C
84
8C
76
ENDCHAR
STARTCHAR uni1EAC
ENCODING 7852
SWIDTH 600 0
DWIDTH 9 0
BBX 9 14 -1 -2
BITMAP
0800
1400
0000
3800
0800
1400
1400
2200
3E00
4100
4100
F780
0000
0C00
ENDCHAR
STARTCHAR uni1EAD
ENCODING 7853
SWIDTH 600 0
DWIDTH 9 0
BBX 7 12 1 -2
BITMAP
10
28
00
78
84
04
7C
84
84
7A
00
18
ENDCHAR
STARTCHAR uni1EAE
ENCODING 7854
SWIDTH 600 0
DWIDTH 9 0
BBX 9 15 -1 0
BITMAP
0600
1800
0000
2200
1C00
0000
3800
0800
1400
1400
2200
3E00
4100
4100
F780
ENDCHAR
STARTCHAR uni1EAF
ENCODING 7855
SWIDTH 600 0
DWIDTH 9 0
BBX 7 13 1 0
BITMAP
0C
30
00
44
38
00
78
84
04
7C
84
84
7A
ENDCHAR
STARTCHAR uni1EB0
ENCODING 7856
SWIDTH 600 0
DWIDTH 9 0
BBX 9 15 -1 0
BITMAP
3000
0C00
0000
2200
1C00
0000
3800
0800
1400
1400
2200
3E00
4100
4100
F780
ENDCHAR
STARTCHAR uni1EB1
ENCODING 7857
SWIDTH 600 0
DWIDTH 9 0
BBX 7 13 1 0
BITMAP
60
18
00
44
38
00
78
84
04
7C
84
84
7A
ENDCHAR
STARTCHAR uni1EB4
ENCODING 7860
SWIDTH 600 0
DWIDTH 9 0
BBX 9 15 -1 0
BITMAP
1A00
2C00
0000
2200
1C00
0000
3800
0800
1400
1400
2200
3E00
4100
4100
F780
ENDCHAR
STARTCHAR uni1EB5
ENCODING 7861
SWIDTH 600 0
DWIDTH 9 0
BBX 7 13 1 0
BITMAP
34
58
00
44
38
00
78
84
04
7C
84
84
7A
ENDCHAR
STARTCHAR uni1EB6
ENCODING 7862
SWIDTH 600 0
DWIDTH 9 0
BBX 9 14 -1 -2
BITMAP
2200
1C00
0000
3800
0800
1400
1400
2200
3E00
4100
4100
F780
0000
0C00
ENDCHAR
STARTCHAR uni1EB7
ENCODING 7863
SWIDTH 600 0
DWIDTH 9 0
BBX 7 12 1 -2
BITMAP
44
38
00
78
84
04
7C
84
84
7A
00
18
ENDCHAR
STARTCHAR uni1EB8
ENCODING 7864
SWIDTH 600 0
DWIDTH 9 0
BBX 7 11 1 -2
BITMAP
FE
42
42
48
78
48
42
42
FE
00
18
ENDCHAR
STARTCHAR uni1EB9
ENCODING 7865
SWIDTH 600 0
DWIDTH 9 0
BBX 7 9 1 -2
BITMAP
38
44
82
FE
80
42
3C
00
18
ENDCHAR
STARTCHAR uni1EBC
ENCODING 7868
SWIDTH 600 0
DWIDTH 9 0
BBX 7 12 1 0
BITMAP
34
58
00
FE
42
42
48
78
48
42
42
FE
ENDCHAR
STARTCHAR uni1EBD
ENCODING 7869
SWIDTH 600 0
DWIDTH 9 0
BBX 7 10 1 0
BITMAP
34
58
00
38
44
82
FE
80
42
3C
ENDCHAR
STARTCHAR uni1EBE
ENCODING 7870
SWIDTH 600 0
DWIDTH 9 0
BBX 7 15 1 0
BITMAP
0C
30
00
10
28
00
FE
42
42
48
78
48
42
42
FE
ENDCHAR
STARTCHAR uni1EBF
ENCODING 7871
SWIDTH 600 0
DWIDTH 9 0
BBX 7 13 1 0
BITMAP
0C
30
00
10
28
00
38
44
82
FE
80
42
3C
ENDCHAR
STARTCHAR uni1EC0
ENCODING 7872
SWIDTH 600 0
DWIDTH 9 0
BBX 7 15 1 0
BITMAP
60
18
00
10
28
00
FE
42
42
48
78
48
42
42
FE
ENDCHAR
STARTCHAR uni1EC1
ENCODING 7873
SWIDTH 600 0
DWIDTH 9 0
BBX 7 13 1 0
BITMAP
60
18
00
10
28
00
38
44
82
FE
80
42
3C
ENDCHAR
STARTCHAR uni1EC4
ENCODING 7876
SWIDTH 600 0
DWIDTH 9 0
BBX 7 15 1 0
BITMAP
34
58
00
10
28
00
FE
42
42
48
78
48
42
42
FE
ENDCHAR
STARTCHAR uni1EC5
ENCODING 7877
SWIDTH 600 0
DWIDTH 9 0
BBX 7 13 1 0
BITMAP
34
58
00
10
28
00
38
44
82
FE
80
42
3C
ENDCHAR
STARTCHAR uni1EC6
ENCODING 7878
SWIDTH 600 0
DWIDTH 9 0
BBX 7 14 1 -2
BITMAP
10
28
00
FE
42
42
48
78
48
42
42
FE
00
18
ENDCHAR
STARTCHAR uni1EC7
ENCODING 7879
SWIDTH 600 0
DWIDTH 9 0
BBX 7 12 1 -2
BITMAP
10
28
00
38
44
82
FE
80
42
3C
00
18
ENDCHAR
STARTCHAR uni1ECA
ENCODING 7882
SWIDTH 600 0
DWIDTH 9 0
BBX 5 11 2 -2
BITMAP
F8
20
20
20
20
20
20
20
F8
00
30
ENDCHAR
STARTCHAR uni1ECB
ENCODING 7883
SWIDTH 600 0
DWIDTH 9 0
BBX 5 12 2 -2
BITMAP
20
20
00
E0
20
20
20
20
20
F8
00
30
ENDCHAR
STARTCHAR uni1ECC
ENCODING 7884
SWIDTH 600 0
DWIDTH 9 0
BBX 8 11 0 -2
BITMAP
3C
42
81
81
81
81
81
42
3C
00
18
ENDCHAR
STARTCHAR uni1ECD
ENCODING 7885
SWIDTH 600 0
DWIDTH 9 0
BBX 8 9 0 -2
BITMAP
3C
42
81
81
81
42
3C
00
18
ENDCHAR
STARTCHAR uni1ED0
ENCODING 7888
SWIDTH 600 0
DWIDTH 9 0
BBX 8 15 0 0
BITMAP
06
18
00
10
28
00
3C
42
81
81
81
81
81
42
3C
ENDCHAR
STARTCHAR uni1ED1
ENCODING 7889
SWIDTH 600 0
DWIDTH 9 0
BBX 8 13 0 0
BITMAP
0C
30
00
10
28
00
3C
42
81
81
81
42
3C
ENDCHAR
STARTCHAR uni1ED2
ENCODING 7890
SWIDTH 600 0
DWIDTH 9 0
BBX 8 15 0 0
BITMAP
60
18
00
10
28
00
3C
42
81
81
81
81
81
42
3C
ENDCHAR
STARTCHAR uni1ED3
ENCODING 7891
SWIDTH 600 0
DWIDTH 9 0
BBX 8 13 0 0
BITMAP
60
18
00
10
28
00
3C
42
81
81
81
42
3C
ENDCHAR
STARTCHAR uni1ED6
ENCODING 7894
SWIDTH 600 0
DWIDTH 9 0
BBX 8 15 0 0
BITMAP
1A
2C
00
10
28
00
3C
42
81
81
81
81
81
42
3C
ENDCHAR
STARTCHAR uni1ED7
ENCODING 7895
SWIDTH 600 0
DWIDTH 9 0
BBX 8 13 0 0
BITMAP
34
58
00
10
28
00
3C
42
81
81
81
42
3C
ENDCHAR
STARTCHAR uni1ED8
ENCODING 7896
SWIDTH 600 0
DWIDTH 9 0
BBX 8 14 0 -2
BITMAP
08
14
00
3C
42
81
81
81
81
81
42
3C
00
18
ENDCHAR
STARTCHAR uni1ED9
ENCODING 7897
SWIDTH 600 0
DWIDTH 9 0
BBX 8 12 0 -2
BITMAP
08
14
00
3C
42
81
81
81
42
3C
00
18
ENDCHAR
STARTCHAR uni1EDA
ENCODING 7898
SWIDTH 600 0
DWIDTH 9 0
BBX 11 12 0 0
BITMAP
0180
0600
0000
3C60
4260
81C0
8180
8100
8100
8100
4200
3C00
ENDCHAR
STARTCHAR uni1EDB
ENCODING 7899
SWIDTH 600 0
DWIDTH 9 0
BBX 11 10 0 0
BITMAP
0180
0600
0000
3C60
4260
81C0
8180
8100
4200
3C00
ENDCHAR
STARTCHAR uni1EDC
ENCODING 7900
SWIDTH 600 0
DWIDTH 9 0
BBX 11 12 0 0
BITMAP
1800
0600
0000
3C60
4260
81C0
8180
8100
8100
8100
4200
3C00
ENDCHAR
STARTCHAR uni1EDD
ENCODING 7901
SWIDTH 600 0
DWIDTH 9 0
BBX 11 10 0 0
BITMAP
1800
0600
0000
3C60
4260
81C0
8180
8100
4200
3C00
ENDCHAR
STARTCHAR uni1EE0
ENCODING 7904
SWIDTH 600 0
DWIDTH 9 0
BBX 11 12 0 0
BITMAP
0680
0B00
0000
3C60
4260
81C0
8180
8100
8100
8100
4200
3C00
ENDCHAR
STARTCHAR uni1EE1
ENCODING 7905
SWIDTH 600 0
DWIDTH 9 0
BBX 11 10 0 0
BITMAP
0680
0B00
0000
3C60
4260
81C0
8180
8100
4200
3C00
ENDCHAR
STARTCHAR uni1EE2
ENCODING 7906
SWIDTH 600 0
DWIDTH 9 0
BBX 11 11 0 -2
BITMAP
3C60
4260
81C0
8180
8100
8100
8100
4200
3C00
0000
0C00
ENDCHAR
STARTCHAR uni1EE3
ENCODING 7907
SWIDTH 600 0
DWIDTH 9 0
BBX 11 9 0 -2
BITMAP
3C60
4260
81C0
8180
8100
4200
3C00
0000
0C00
ENDCHAR
STARTCHAR uni1EE4
ENCODING 7908
SWIDTH 600 0
DWIDTH 9 0
BBX 8 11 0 -2
BITMAP
E7
42
42
42
42
42
42
42
3C
00
18
ENDCHAR
STARTCHAR uni1EE5
ENCODING 7909
SWIDTH 600 0
DWIDTH 9 0
BBX 8 9 0 -2
BITMAP
C6
42
42
42
42
46
3B
00
0C
ENDCHAR
STARTCHAR uni1EE8
ENCODING 7912
SWIDTH 600 0
DWIDTH 9 0
BBX 11 12 0 0
BITMAP
0180
0600
0000
E760
4260
42C0
4280
4200
4200
4200
4200
3C00
ENDCHAR
STARTCHAR uni1EE9
ENCODING 7913
SWIDTH 600 0
DWIDTH 9 0
BBX 11 10 0 0
BITMAP
0180
0600
0000
C660
4260
42C0
4280
4200
4600
3B00
ENDCHAR
STARTCHAR uni1EEA
ENCODING 7914
SWIDTH 600 0
DWIDTH 9 0
BBX 11 12 0 0
BITMAP
1800
0600
0000
E760
4260
42C0
4280
4200
4200
4200
4200
3C00
ENDCHAR
STARTCHAR uni1EEB
ENCODING 7915
SWIDTH 600 0
DWIDTH 9 0
BBX 11 10 0 0
BITMAP
1800
0600
0000
C660
4260
42C0
4280
4200
4600
3B00
ENDCHAR
STARTCHAR uni1EEE
ENCODING 7918
SWIDTH 600 0
DWIDTH 9 0
BBX 11 12 0 0
BITMAP
0680
0B00
0000
E760
4260
42C0
4280
4200
4200
4200
4200
3C00
ENDCHAR
STARTCHAR uni1EEF
ENCODING 7919
SWIDTH 600 0
DWIDTH 9 0
BBX 11 10 0 0
BITMAP
0680
0B00
0000
C660
4260
42C0
4280
4200
4600
3B00
ENDCHAR
STARTCHAR uni1EF0
ENCODING 7920
SWIDTH 600 0
DWIDTH 9 0
BBX 11 11 0 -2
BITMAP
E760
4260
42C0
4280
4200
4200
4200
4200
3C00
0000
0C00
ENDCHAR
STARTCHAR uni1EF1
ENCODING 7921
SWIDTH 600 0
DWIDTH 9 0
BBX 11 9 0 -2
BITMAP
C660
4260
42C0
4280
4200
4600
3B00
0000
0C00
ENDCHAR
STARTCHAR Ygrave
ENCODING 7922
SWIDTH 600 0
DWIDTH 9 0
BBX 7 12 0 0
BITMAP
60
18
00
EE
44
44
28
28
10
10
10
7C
ENDCHAR
STARTCHAR ygrave
ENCODING 7923
SWIDTH 600 0
DWIDTH 9 0
BBX 8 13 0 -3
BITMAP
60
18
00
E7
42
42
24
24
18
08
10
10
78
ENDCHAR
STARTCHAR uni1EF4
ENCODING 7924
SWIDTH 600 0
DWIDTH 9 0
BBX 7 11 0 -2
BITMAP
EE
44
44
28
28
10
10
10
7C
00
18
ENDCHAR
STARTCHAR uni1EF5
ENCODING 7925
SWIDTH 600 0
DWIDTH 9 0
BBX 8 12 0 -5
BITMAP
E7
42
42
24
24
18
08
10
10
78
00
30
ENDCHAR
STARTCHAR uni1EF8
ENCODING 7928
SWIDTH 600 0
DWIDTH 9 0
BBX 7 12 0 0
BITMAP
34
58
00
EE
44
44
28
28
10
10
10
7C
ENDCHAR
STARTCHAR uni1EF9
ENCODING 7929
SWIDTH 600 0
DWIDTH 9 0
BBX 8 13 0 -3
BITMAP
1A
2C
00
E7
42
42
24
24
18
08
10
10
78
ENDCHAR
STARTCHAR uni2000
ENCODING 8192
SWIDTH 600 0
DWIDTH 9 0
BBX 1 1 0 0
BITMAP
00
ENDCHAR
STARTCHAR uni2001
ENCODING 8193
SWIDTH 600 0
DWIDTH 9 0
BBX 1 1 0 0
BITMAP
00
ENDCHAR
STARTCHAR uni2002
ENCODING 8194
SWIDTH 600 0
DWIDTH 9 0
BBX 1 1 0 0
BITMAP
00
ENDCHAR
STARTCHAR uni2003
ENCODING 8195
SWIDTH 600 0
DWIDTH 9 0
BBX 1 1 0 0
BITMAP
00
ENDCHAR
STARTCHAR uni2004
ENCODING 8196
SWIDTH 600 0
DWIDTH 9 0
BBX 1 1 0 0
BITMAP
00
ENDCHAR
STARTCHAR uni2005
ENCODING 8197
SWIDTH 600 0
DWIDTH 9 0
BBX 1 1 0 0
BITMAP
00
ENDCHAR
STARTCHAR uni2006
ENCODING 8198
SWIDTH 600 0
DWIDTH 9 0
BBX 1 1 0 0
BITMAP
00
ENDCHAR
STARTCHAR uni2007
ENCODING 8199
SWIDTH 600 0
DWIDTH 9 0
BBX 1 1 0 0
BITMAP
00
ENDCHAR
STARTCHAR uni2008
ENCODING 8200
SWIDTH 600 0
DWIDTH 9 0
BBX 1 1 0 0
BITMAP
00
ENDCHAR
STARTCHAR uni2009
ENCODING 8201
SWIDTH 600 0
DWIDTH 9 0
BBX 1 1 0 0
BITMAP
00
ENDCHAR
STARTCHAR uni200A
ENCODING 8202
SWIDTH 600 0
DWIDTH 9 0
BBX 1 1 0 0
BITMAP
00
ENDCHAR
STARTCHAR uni2010
ENCODING 8208
SWIDTH 600 0
DWIDTH 9 0
BBX 6 1 1 4
BITMAP
FC
ENDCHAR
STARTCHAR uni2011
ENCODING 8209
SWIDTH 600 0
DWIDTH 9 0
BBX 6 1 1 4
BITMAP
FC
ENDCHAR
STARTCHAR figuredash
ENCODING 8210
SWIDTH 600 0
DWIDTH 9 0
BBX 7 1 1 4
BITMAP
FE
ENDCHAR
STARTCHAR endash
ENCODING 8211
SWIDTH 600 0
DWIDTH 9 0
BBX 7 1 1 4
BITMAP
FE
ENDCHAR
STARTCHAR emdash
ENCODING 8212
SWIDTH 600 0
DWIDTH 9 0
BBX 9 1 0 4
BITMAP
FF80
ENDCHAR
STARTCHAR afii00208
ENCODING 8213
SWIDTH 600 0
DWIDTH 9 0
BBX 9 1 0 4
BITMAP
FF80
ENDCHAR
STARTCHAR quoteleft
ENCODING 8216
SWIDTH 600 0
DWIDTH 9 0
BBX 3 4 2 6
BITMAP
C0
C0
60
20
ENDCHAR
STARTCHAR quoteright
ENCODING 8217
SWIDTH 600 0
DWIDTH 9 0
BBX 3 4 2 6
BITMAP
60
60
C0
80
ENDCHAR
STARTCHAR quotesinglbase
ENCODING 8218
SWIDTH 600 0
DWIDTH 9 0
BBX 3 4 3 -2
BITMAP
60
60
C0
80
ENDCHAR
STARTCHAR quotereversed
ENCODING 8219
SWIDTH 600 0
DWIDTH 9 0
BBX 3 4 2 6
BITMAP
C0
C0
60
20
ENDCHAR
STARTCHAR quotedblleft
ENCODING 8220
SWIDTH 600 0
DWIDTH 9 0
BBX 6 4 1 5
BITMAP
D8
D8
6C
24
ENDCHAR
STARTCHAR quotedblright
ENCODING 8221
SWIDTH 600 0
DWIDTH 9 0
BBX 6 4 1 5
BITMAP
6C
6C
D8
90
ENDCHAR
STARTCHAR quotedblbase
ENCODING 8222
SWIDTH 600 0
DWIDTH 9 0
BBX 6 4 1 -2
BITMAP
6C
6C
D8
90
ENDCHAR
STARTCHAR uni201F
ENCODING 8223
SWIDTH 600 0
DWIDTH 9 0
BBX 6 4 1 5
BITMAP
D8
D8
6C
24
ENDCHAR
STARTCHAR dagger
ENCODING 8224
SWIDTH 600 0
DWIDTH 9 0
BBX 5 10 2 -1
BITMAP
20
20
F8
20
20
20
20
20
20
20
ENDCHAR
STARTCHAR daggerdbl
ENCODING 8225
SWIDTH 600 0
DWIDTH 9 0
BBX 5 10 2 -1
BITMAP
20
20
F8
20
20
20
20
F8
20
20
ENDCHAR
STARTCHAR bullet
ENCODING 8226
SWIDTH 600 0
DWIDTH 9 0
BBX 3 3 3 4
BITMAP
E0
E0
E0
ENDCHAR
STARTCHAR ellipsis
ENCODING 8230
SWIDTH 600 0
DWIDTH 9 0
BBX 7 1 1 0
BITMAP
92
ENDCHAR
STARTCHAR perthousand
ENCODING 8240
SWIDTH 600 0
DWIDTH 9 0
BBX 8 9 0 0
BITMAP
60
A0
A6
D8
60
B3
55
55
66
ENDCHAR
STARTCHAR guilsinglleft
ENCODING 8249
SWIDTH 600 0
DWIDTH 9 0
BBX 4 7 2 0
BITMAP
10
30
60
C0
60
30
10
ENDCHAR
STARTCHAR guilsinglright
ENCODING 8250
SWIDTH 600 0
DWIDTH 9 0
BBX 4 7 3 0
BITMAP
80
C0
60
30
60
C0
80
ENDCHAR
STARTCHAR uni203D
ENCODING 8253
SWIDTH 600 0
DWIDTH 9 0
BBX 5 9 1 0
BITMAP
70
A8
28
28
30
20
00
20
20
ENDCHAR
STARTCHAR fraction
ENCODING 8260
SWIDTH 600 0
DWIDTH 9 0
BBX 6 4 1 2
BITMAP
04
18
60
80
ENDCHAR
STARTCHAR oneinferior
ENCODING 8321
SWIDTH 600 0
DWIDTH 9 0
BBX 3 6 3 -3
BITMAP
40
C0
40
40
40
E0
ENDCHAR
STARTCHAR twoinferior
ENCODING 8322
SWIDTH 600 0
DWIDTH 9 0
BBX 4 6 2 -3
BITMAP
60
90
10
20
40
F0
ENDCHAR
STARTCHAR threeinferior
ENCODING 8323
SWIDTH 600 0
DWIDTH 9 0
BBX 4 6 2 -3
BITMAP
60
90
60
10
90
60
ENDCHAR
STARTCHAR uni20A5
ENCODING 8357
SWIDTH 600 0
DWIDTH 9 0
BBX 9 11 0 -2
BITMAP
0100
0200
DB00
6D00
4D00
4900
4900
5900
FD80
2000
2000
ENDCHAR
STARTCHAR uni20A6
ENCODING 8358
SWIDTH 600 0
DWIDTH 9 0
BBX 8 9 0 0
BITMAP
E7
62
52
7F
4A
7F
46
46
E2
ENDCHAR
STARTCHAR uni20A9
ENCODING 8361
SWIDTH 600 0
DWIDTH 9 0
BBX 9 9 0 0
BITMAP
E380
4100
4900
7F00
5500
7F00
2200
2200
2200
ENDCHAR
STARTCHAR Euro
ENCODING 8364
SWIDTH 600 0
DWIDTH 9 0
BBX 9 9 -1 0
BITMAP
0E80
1180
2080
FE00
2000
FE00
2000
1080
0F00
ENDCHAR
STARTCHAR uni20AD
ENCODING 8365
SWIDTH 600 0
DWIDTH 9 0
BBX 8 9 0 0
BITMAP
EE
44
48
50
FF
48
44
44
E3
ENDCHAR
STARTCHAR trademark
ENCODING 8482
SWIDTH 600 0
DWIDTH 9 0
BBX 8 4 0 5
BITMAP
F1
5B
55
55
ENDCHAR
STARTCHAR uni212A
ENCODING 8490
SWIDTH 600 0
DWIDTH 9 0
BBX 8 9 0 0
BITMAP
EE
44
48
50
70
48
44
44
E3
ENDCHAR
STARTCHAR uni212B
ENCODING 8491
SWIDTH 600 0
DWIDTH 9 0
BBX 9 12 0 0
BITMAP
1800
2400
1800
3800
0800
1400
1400
2200
3E00
4100
4100
F780
ENDCHAR
STARTCHAR uni2132
ENCODING 8498
SWIDTH 600 0
DWIDTH 9 0
BBX 7 9 1 0
BITMAP
1E
04
04
24
3C
24
84
84
FE
ENDCHAR
STARTCHAR universal
ENCODING 8704
SWIDTH 600 0
DWIDTH 9 0
BBX 9 9 -1 0
BITMAP
F780
4100
4100
3E00
2200
1400
1400
0800
3800
ENDCHAR
STARTCHAR existential
ENCODING 8707
SWIDTH 600 0
DWIDTH 9 0
BBX 7 9 1 0
BITMAP
FE
84
84
24
3C
24
84
84
FE
ENDCHAR
STARTCHAR uni2204
ENCODING 8708
SWIDTH 600 0
DWIDTH 9 0
BBX 7 11 1 -1
BITMAP
02
FE
84
8C
2C
3C
34
A4
A4
FE
40
ENDCHAR
STARTCHAR minus
ENCODING 8722
SWIDTH 600 0
DWIDTH 9 0
BBX 7 1 1 4
BITMAP
FE
ENDCHAR
STARTCHAR fraction
ENCODING 8725
SWIDTH 600 0
DWIDTH 9 0
BBX 6 4 1 2
BITMAP
04
18
60
80
ENDCHAR
STARTCHAR periodcentered
ENCODING 8729
SWIDTH 600 0
DWIDTH 9 0
BBX 2 2 3 3
BITMAP
C0
C0
ENDCHAR
STARTCHAR uni2236
ENCODING 8758
SWIDTH 600 0
DWIDTH 9 0
BBX 2 7 3 0
BITMAP
C0
C0
00
00
00
C0
C0
ENDCHAR
STARTCHAR uni2259
ENCODING 8793
SWIDTH 600 0
DWIDTH 9 0
BBX 7 6 1 3
BITMAP
10
28
00
FE
00
FE
ENDCHAR
STARTCHAR uni225A
ENCODING 8794
SWIDTH 600 0
DWIDTH 9 0
BBX 7 6 1 3
BITMAP
28
10
00
FE
00
FE
ENDCHAR
STARTCHAR notequal
ENCODING 8800
SWIDTH 600 0
DWIDTH 9 0
BBX 7 11 1 -1
BITMAP
02
04
04
08
FE
10
FE
20
20
40
40
ENDCHAR
STARTCHAR equivalence
ENCODING 8801
SWIDTH 600 0
DWIDTH 9 0
BBX 7 5 0 2
BITMAP
FE
00
FE
00
FE
ENDCHAR
STARTCHAR uni2262
ENCODING 8802
SWIDTH 600 0
DWIDTH 9 0
BBX 7 11 0 -1
BITMAP
02
04
04
FE
08
FE
10
FE
20
40
40
ENDCHAR
STARTCHAR lessequal
ENCODING 8804
SWIDTH 600 0
DWIDTH 9 0
BBX 7 9 0 -1
BITMAP
06
18
60
80
60
18
06
00
FE
ENDCHAR
STARTCHAR greaterequal
ENCODING 8805
SWIDTH 600 0
DWIDTH 9 0
BBX 7 9 1 -1
BITMAP
C0
30
0C
02
0C
30
C0
00
FE
ENDCHAR
STARTCHAR uni226E
ENCODING 8814
SWIDTH 600 0
DWIDTH 9 0
BBX 7 11 0 -1
BITMAP
02
04
06
18
68
90
70
38
26
40
40
ENDCHAR
STARTCHAR uni226F
ENCODING 8815
SWIDTH 600 0
DWIDTH 9 0
BBX 7 11 1 -1
BITMAP
02
04
C4
38
0C
12
1C
30
E0
40
40
ENDCHAR
STARTCHAR uni2270
ENCODING 8816
SWIDTH 600 0
DWIDTH 9 0
BBX 7 11 0 -2
BITMAP
02
06
1C
68
88
70
18
26
20
FE
40
ENDCHAR
STARTCHAR uni2271
ENCODING 8817
SWIDTH 600 0
DWIDTH 9 0
BBX 7 11 1 -2
BITMAP
02
C4
34
0C
0A
1C
30
E0
20
FE
40
ENDCHAR
STARTCHAR SF100000
ENCODING 9472
SWIDTH 600 0
DWIDTH 9 0
BBX 9 1 0 4
BITMAP
FF80
ENDCHAR
STARTCHAR uni2501
ENCODING 9473
SWIDTH 600 0
DWIDTH 9 0
BBX 9 3 0 3
BITMAP
FF80
FF80
FF80
ENDCHAR
STARTCHAR SF110000
ENCODING 9474
SWIDTH 600 0
DWIDTH 9 0
BBX 1 14 4 -3
BITMAP
80
80
80
80
80
80
80
80
80
80
80
80
80
80
ENDCHAR
STARTCHAR uni2503
ENCODING 9475
SWIDTH 600 0
DWIDTH 9 0
BBX 3 14 3 -3
BITMAP
E0
E0
E0
E0
E0
E0
E0
E0
E0
E0
E0
E0
E0
E0
ENDCHAR
STARTCHAR SF010000
ENCODING 9484
SWIDTH 600 0
DWIDTH 9 0
BBX 5 8 4 -3
BITMAP
F8
80
80
80
80
80
80
80
ENDCHAR
STARTCHAR uni250D
ENCODING 9485
SWIDTH 600 0
DWIDTH 9 0
BBX 6 9 3 -3
BITMAP
FC
FC
FC
40
40
40
40
40
40
ENDCHAR
STARTCHAR uni250E
ENCODING 9486
SWIDTH 600 0
DWIDTH 9 0
BBX 6 9 3 -3
BITMAP
E0
FC
E0
E0
E0
E0
E0
E0
E0
ENDCHAR
STARTCHAR uni250F
ENCODING 9487
SWIDTH 600 0
DWIDTH 9 0
BBX 6 9 3 -3
BITMAP
FC
FC
FC
E0
E0
E0
E0
E0
E0
ENDCHAR
STARTCHAR SF030000
ENCODING 9488
SWIDTH 600 0
DWIDTH 9 0
BBX 5 8 0 -3
BITMAP
F8
08
08
08
08
08
08
08
ENDCHAR
STARTCHAR uni2511
ENCODING 9489
SWIDTH 600 0
DWIDTH 9 0
BBX 6 9 0 -3
BITMAP
FC
FC
FC
08
08
08
08
08
08
ENDCHAR
STARTCHAR uni2512
ENCODING 9490
SWIDTH 600 0
DWIDTH 9 0
BBX 6 9 0 -3
BITMAP
1C
FC
1C
1C
1C
1C
1C
1C
1C
ENDCHAR
STARTCHAR uni2513
ENCODING 9491
SWIDTH 600 0
DWIDTH 9 0
BBX 6 9 0 -3
BITMAP
FC
FC
FC
1C
1C
1C
1C
1C
1C
ENDCHAR
STARTCHAR SF020000
ENCODING 9492
SWIDTH 600 0
DWIDTH 9 0
BBX 5 7 4 4
BITMAP
80
80
80
80
80
80
F8
ENDCHAR
STARTCHAR uni2515
ENCODING 9493
SWIDTH 600 0
DWIDTH 9 0
BBX 6 8 3 3
BITMAP
40
40
40
40
40
FC
FC
FC
ENDCHAR
STARTCHAR uni2516
ENCODING 9494
SWIDTH 600 0
DWIDTH 9 0
BBX 6 8 3 3
BITMAP
E0
E0
E0
E0
E0
E0
FC
E0
ENDCHAR
STARTCHAR uni2517
ENCODING 9495
SWIDTH 600 0
DWIDTH 9 0
BBX 6 8 3 3
BITMAP
E0
E0
E0
E0
E0
FC
FC
FC
ENDCHAR
STARTCHAR SF040000
ENCODING 9496
SWIDTH 600 0
DWIDTH 9 0
BBX 5 7 0 4
BITMAP
08
08
08
08
08
08
F8
ENDCHAR
STARTCHAR uni2519
ENCODING 9497
SWIDTH 600 0
DWIDTH 9 0
BBX 6 8 0 3
BITMAP
08
08
08
08
08
FC
FC
FC
ENDCHAR
STARTCHAR uni251A
ENCODING 9498
SWIDTH 600 0
DWIDTH 9 0
BBX 6 8 0 3
BITMAP
1C
1C
1C
1C
1C
1C
FC
1C
ENDCHAR
STARTCHAR uni251B
ENCODING 9499
SWIDTH 600 0
DWIDTH 9 0
BBX 6 8 0 3
BITMAP
1C
1C
1C
1C
1C
FC
FC
FC
ENDCHAR
STARTCHAR SF080000
ENCODING 9500
SWIDTH 600 0
DWIDTH 9 0
BBX 5 14 4 -3
BITMAP
80
80
80
80
80
80
F8
80
80
80
80
80
80
80
ENDCHAR
STARTCHAR uni251D
ENCODING 9501
SWIDTH 600 0
DWIDTH 9 0
BBX 6 14 3 -3
BITMAP
40
40
40
40
40
FC
FC
FC
40
40
40
40
40
40
ENDCHAR
STARTCHAR uni251E
ENCODING 9502
SWIDTH 600 0
DWIDTH 9 0
BBX 6 14 3 -3
BITMAP
E0
E0
E0
E0
E0
E0
FC
E0
40
40
40
40
40
40
ENDCHAR
STARTCHAR uni251F
ENCODING 9503
SWIDTH 600 0
DWIDTH 9 0
BBX 6 14 3 -3
BITMAP
40
40
40
40
40
E0
FC
E0
E0
E0
E0
E0
E0
E0
ENDCHAR
STARTCHAR uni2520
ENCODING 9504
SWIDTH 600 0
DWIDTH 9 0
BBX 6 14 3 -3
BITMAP
E0
E0
E0
E0
E0
E0
FC
E0
E0
E0
E0
E0
E0
E0
ENDCHAR
STARTCHAR uni2521
ENCODING 9505
SWIDTH 600 0
DWIDTH 9 0
BBX 6 14 3 -3
BITMAP
E0
E0
E0
E0
E0
FC
FC
FC
40
40
40
40
40
40
ENDCHAR
STARTCHAR uni2522
ENCODING 9506
SWIDTH 600 0
DWIDTH 9 0
BBX 6 14 3 -3
BITMAP
40
40
40
40
40
FC
FC
FC
E0
E0
E0
E0
E0
E0
ENDCHAR
STARTCHAR uni2523
ENCODING 9507
SWIDTH 600 0
DWIDTH 9 0
BBX 6 14 3 -3
BITMAP
E0
E0
E0
E0
E0
FC
FC
FC
E0
E0
E0
E0
E0
E0
ENDCHAR
STARTCHAR SF090000
ENCODING 9508
SWIDTH 600 0
DWIDTH 9 0
BBX 5 14 0 -3
BITMAP
08
08
08
08
08
08
F8
08
08
08
08
08
08
08
ENDCHAR
STARTCHAR uni2525
ENCODING 9509
SWIDTH 600 0
DWIDTH 9 0
BBX 6 14 0 -3
BITMAP
08
08
08
08
08
FC
FC
FC
08
08
08
08
08
08
ENDCHAR
STARTCHAR uni2526
ENCODING 9510
SWIDTH 600 0
DWIDTH 9 0
BBX 6 14 0 -3
BITMAP
1C
1C
1C
1C
1C
1C
FC
1C
08
08
08
08
08
08
ENDCHAR
STARTCHAR uni2527
ENCODING 9511
SWIDTH 600 0
DWIDTH 9 0
BBX 6 14 0 -3
BITMAP
08
08
08
08
08
1C
FC
1C
1C
1C
1C
1C
1C
1C
ENDCHAR
STARTCHAR uni2528
ENCODING 9512
SWIDTH 600 0
DWIDTH 9 0
BBX 6 14 0 -3
BITMAP
1C
1C
1C
1C
1C
1C
FC
1C
1C
1C
1C
1C
1C
1C
ENDCHAR
STARTCHAR uni2529
ENCODING 9513
SWIDTH 600 0
DWIDTH 9 0
BBX 6 14 0 -3
BITMAP
1C
1C
1C
1C
1C
FC
FC
FC
08
08
08
08
08
08
ENDCHAR
STARTCHAR uni252A
ENCODING 9514
SWIDTH 600 0
DWIDTH 9 0
BBX 6 14 0 -3
BITMAP
08
08
08
08
08
FC
FC
FC
1C
1C
1C
1C
1C
1C
ENDCHAR
STARTCHAR uni252B
ENCODING 9515
SWIDTH 600 0
DWIDTH 9 0
BBX 6 14 0 -3
BITMAP
1C
1C
1C
1C
1C
FC
FC
FC
1C
1C
1C
1C
1C
1C
ENDCHAR
STARTCHAR SF060000
ENCODING 9516
SWIDTH 600 0
DWIDTH 9 0
BBX 9 8 0 -3
BITMAP
FF80
0800
0800
0800
0800
0800
0800
0800
ENDCHAR
STARTCHAR uni252D
ENCODING 9517
SWIDTH 600 0
DWIDTH 9 0
BBX 9 9 0 -3
BITMAP
FC00
FF80
FC00
0800
0800
0800
0800
0800
0800
ENDCHAR
STARTCHAR uni252E
ENCODING 9518
SWIDTH 600 0
DWIDTH 9 0
BBX 9 9 0 -3
BITMAP
1F80
FF80
1F80
0800
0800
0800
0800
0800
0800
ENDCHAR
STARTCHAR uni252F
ENCODING 9519
SWIDTH 600 0
DWIDTH 9 0
BBX 9 9 0 -3
BITMAP
FF80
FF80
FF80
0800
0800
0800
0800
0800
0800
ENDCHAR
STARTCHAR uni2530
ENCODING 9520
SWIDTH 600 0
DWIDTH 9 0
BBX 9 9 0 -3
BITMAP
1C00
FF80
1C00
1C00
1C00
1C00
1C00
1C00
1C00
ENDCHAR
STARTCHAR uni2531
ENCODING 9521
SWIDTH 600 0
DWIDTH 9 0
BBX 9 9 0 -3
BITMAP
FC00
FF80
FC00
1C00
1C00
1C00
1C00
1C00
1C00
ENDCHAR
STARTCHAR uni2532
ENCODING 9522
SWIDTH 600 0
DWIDTH 9 0
BBX 9 9 0 -3
BITMAP
1F80
FF80
1F80
1C00
1C00
1C00
1C00
1C00
1C00
ENDCHAR
STARTCHAR uni2533
ENCODING 9523
SWIDTH 600 0
DWIDTH 9 0
BBX 9 9 0 -3
BITMAP
FF80
FF80
FF80
1C00
1C00
1C00
1C00
1C00
1C00
ENDCHAR
STARTCHAR SF070000
ENCODING 9524
SWIDTH 600 0
DWIDTH 9 0
BBX 9 7 0 4
BITMAP
0800
0800
0800
0800
0800
0800
FF80
ENDCHAR
STARTCHAR uni2535
ENCODING 9525
SWIDTH 600 0
DWIDTH 9 0
BBX 9 8 0 3
BITMAP
0800
0800
0800
0800
0800
FC00
FF80
FC00
ENDCHAR
STARTCHAR uni2536
ENCODING 9526
SWIDTH 600 0
DWIDTH 9 0
BBX 9 8 0 3
BITMAP
0800
0800
0800
0800
0800
1F80
FF80
1F80
ENDCHAR
STARTCHAR uni2537
ENCODING 9527
SWIDTH 600 0
DWIDTH 9 0
BBX 9 8 0 3
BITMAP
0800
0800
0800
0800
0800
FF80
FF80
FF80
ENDCHAR
STARTCHAR uni2538
ENCODING 9528
SWIDTH 600 0
DWIDTH 9 0
BBX 9 8 0 3
BITMAP
1C00
1C00
1C00
1C00
1C00
1C00
FF80
1C00
ENDCHAR
STARTCHAR uni2539
ENCODING 9529
SWIDTH 600 0
DWIDTH 9 0
BBX 9 8 0 3
BITMAP
1C00
1C00
1C00
1C00
1C00
FC00
FF80
FC00
ENDCHAR
STARTCHAR uni253A
ENCODING 9530
SWIDTH 600 0
DWIDTH 9 0
BBX 9 8 0 3
BITMAP
1C00
1C00
1C00
1C00
1C00
1F80
FF80
1F80
ENDCHAR
STARTCHAR uni253B
ENCODING 9531
SWIDTH 600 0
DWIDTH 9 0
BBX 9 8 0 3
BITMAP
1C00
1C00
1C00
1C00
1C00
FF80
FF80
FF80
ENDCHAR
STARTCHAR SF050000
ENCODING 9532
SWIDTH 600 0
DWIDTH 9 0
BBX 9 14 0 -3
BITMAP
0800
0800
0800
0800
0800
0800
FF80
0800
0800
0800
0800
0800
0800
0800
ENDCHAR
STARTCHAR uni253D
ENCODING 9533
SWIDTH 600 0
DWIDTH 9 0
BBX 9 14 0 -3
BITMAP
0800
0800
0800
0800
0800
FC00
FF80
FC00
0800
0800
0800
0800
0800
0800
ENDCHAR
STARTCHAR uni253E
ENCODING 9534
SWIDTH 600 0
DWIDTH 9 0
BBX 9 14 0 -3
BITMAP
0800
0800
0800
0800
0800
1F80
FF80
1F80
0800
0800
0800
0800
0800
0800
ENDCHAR
STARTCHAR uni253F
ENCODING 9535
SWIDTH 600 0
DWIDTH 9 0
BBX 9 14 0 -3
BITMAP
0800
0800
0800
0800
0800
FF80
FF80
FF80
0800
0800
0800
0800
0800
0800
ENDCHAR
STARTCHAR uni2540
ENCODING 9536
SWIDTH 600 0
DWIDTH 9 0
BBX 9 14 0 -3
BITMAP
1C00
1C00
1C00
1C00
1C00
1C00
FF80
1C00
0800
0800
0800
0800
0800
0800
ENDCHAR
STARTCHAR uni2541
ENCODING 9537
SWIDTH 600 0
DWIDTH 9 0
BBX 9 14 0 -3
BITMAP
0800
0800
0800
0800
0800
1C00
FF80
1C00
1C00
1C00
1C00
1C00
1C00
1C00
ENDCHAR
STARTCHAR uni2542
ENCODING 9538
SWIDTH 600 0
DWIDTH 9 0
BBX 9 14 0 -3
BITMAP
1C00
1C00
1C00
1C00
1C00
1C00
FF80
1C00
1C00
1C00
1C00
1C00
1C00
1C00
ENDCHAR
STARTCHAR uni2543
ENCODING 9539
SWIDTH 600 0
DWIDTH 9 0
BBX 9 14 0 -3
BITMAP
1C00
1C00
1C00
1C00
1C00
FC00
FF80
FC00
0800
0800
0800
0800
0800
0800
ENDCHAR
STARTCHAR uni2544
ENCODING 9540
SWIDTH 600 0
DWIDTH 9 0
BBX 9 14 0 -3
BITMAP
1C00
1C00
1C00
1C00
1C00
1F80
FF80
1F80
0800
0800
0800
0800
0800
0800
ENDCHAR
STARTCHAR uni2545
ENCODING 9541
SWIDTH 600 0
DWIDTH 9 0
BBX 9 14 0 -3
BITMAP
0800
0800
0800
0800
0800
FC00
FF80
FC00
1C00
1C00
1C00
1C00
1C00
1C00
ENDCHAR
STARTCHAR uni2546
ENCODING 9542
SWIDTH 600 0
DWIDTH 9 0
BBX 9 14 0 -3
BITMAP
0800
0800
0800
0800
0800
1F80
FF80
1F80
1C00
1C00
1C00
1C00
1C00
1C00
ENDCHAR
STARTCHAR uni2547
ENCODING 9543
SWIDTH 600 0
DWIDTH 9 0
BBX 9 14 0 -3
BITMAP
1C00
1C00
1C00
1C00
1C00
FF80
FF80
FF80
0800
0800
0800
0800
0800
0800
ENDCHAR
STARTCHAR uni2548
ENCODING 9544
SWIDTH 600 0
DWIDTH 9 0
BBX 9 14 0 -3
BITMAP
0800
0800
0800
0800
0800
FF80
FF80
FF80
1C00
1C00
1C00
1C00
1C00
1C00
ENDCHAR
STARTCHAR uni2549
ENCODING 9545
SWIDTH 600 0
DWIDTH 9 0
BBX 9 14 0 -3
BITMAP
1C00
1C00
1C00
1C00
1C00
FC00
FF80
FC00
1C00
1C00
1C00
1C00
1C00
1C00
ENDCHAR
STARTCHAR uni254A
ENCODING 9546
SWIDTH 600 0
DWIDTH 9 0
BBX 9 14 0 -3
BITMAP
1C00
1C00
1C00
1C00
1C00
1F80
FF80
1F80
1C00
1C00
1C00
1C00
1C00
1C00
ENDCHAR
STARTCHAR uni254B
ENCODING 9547
SWIDTH 600 0
DWIDTH 9 0
BBX 9 14 0 -3
BITMAP
1C00
1C00
1C00
1C00
1C00
FF80
FF80
FF80
1C00
1C00
1C00
1C00
1C00
1C00
ENDCHAR
STARTCHAR uni254C
ENCODING 9548
SWIDTH 600 0
DWIDTH 9 0
BBX 9 14 0 -3
BITMAP
0000
0000
0000
0000
0000
0000
F780
0000
0000
0000
0000
0000
0000
0000
ENDCHAR
STARTCHAR uni254D
ENCODING 9549
SWIDTH 600 0
DWIDTH 9 0
BBX 9 14 0 -3
BITMAP
0000
0000
0000
0000
0000
F780
F780
F780
0000
0000
0000
0000
0000
0000
ENDCHAR
STARTCHAR uni254E
ENCODING 9550
SWIDTH 600 0
DWIDTH 9 0
BBX 9 14 0 -3
BITMAP
0800
0800
0800
0800
0800
0800
0000
0800
0800
0800
0800
0800
0800
0800
ENDCHAR
STARTCHAR uni254F
ENCODING 9551
SWIDTH 600 0
DWIDTH 9 0
BBX 9 14 0 -3
BITMAP
1C00
1C00
1C00
1C00
1C00
1C00
0000
1C00
1C00
1C00
1C00
1C00
1C00
1C00
ENDCHAR
STARTCHAR SF430000
ENCODING 9552
SWIDTH 600 0
DWIDTH 9 0
BBX 9 3 0 3
BITMAP
FF80
0000
FF80
ENDCHAR
STARTCHAR SF240000
ENCODING 9553
SWIDTH 600 0
DWIDTH 9 0
BBX 3 14 3 -3
BITMAP
A0
A0
A0
A0
A0
A0
A0
A0
A0
A0
A0
A0
A0
A0
ENDCHAR
STARTCHAR SF390000
ENCODING 9556
SWIDTH 600 0
DWIDTH 9 0
BBX 6 9 3 -3
BITMAP
FC
80
BC
A0
A0
A0
A0
A0
A0
ENDCHAR
STARTCHAR SF250000
ENCODING 9559
SWIDTH 600 0
DWIDTH 9 0
BBX 6 9 0 -3
BITMAP
FC
04
F4
14
14
14
14
14
14
ENDCHAR
STARTCHAR SF380000
ENCODING 9562
SWIDTH 600 0
DWIDTH 9 0
BBX 6 8 3 3
BITMAP
A0
A0
A0
A0
A0
BC
80
FC
ENDCHAR
STARTCHAR SF260000
ENCODING 9565
SWIDTH 600 0
DWIDTH 9 0
BBX 6 8 0 3
BITMAP
14
14
14
14
14
F4
04
FC
ENDCHAR
STARTCHAR SF420000
ENCODING 9568
SWIDTH 600 0
DWIDTH 9 0
BBX 6 14 3 -3
BITMAP
A0
A0
A0
A0
A0
BC
80
BC
A0
A0
A0
A0
A0
A0
ENDCHAR
STARTCHAR SF230000
ENCODING 9571
SWIDTH 600 0
DWIDTH 9 0
BBX 6 14 0 -3
BITMAP
14
14
14
14
14
F4
04
F4
14
14
14
14
14
14
ENDCHAR
STARTCHAR SF410000
ENCODING 9574
SWIDTH 600 0
DWIDTH 9 0
BBX 9 9 0 -3
BITMAP
FF80
0000
F780
1400
1400
1400
1400
1400
1400
ENDCHAR
STARTCHAR SF400000
ENCODING 9577
SWIDTH 600 0
DWIDTH 9 0
BBX 9 8 0 3
BITMAP
1400
1400
1400
1400
1400
F780
0000
FF80
ENDCHAR
STARTCHAR SF540000
ENCODING 9578
SWIDTH 600 0
DWIDTH 9 0
BBX 9 14 0 -3
BITMAP
0800
0800
0800
0800
0800
FF80
0800
FF80
0800
0800
0800
0800
0800
0800
ENDCHAR
STARTCHAR SF530000
ENCODING 9579
SWIDTH 600 0
DWIDTH 9 0
BBX 9 14 0 -3
BITMAP
1400
1400
1400
1400
1400
1400
FF80
1400
1400
1400
1400
1400
1400
1400
ENDCHAR
STARTCHAR SF440000
ENCODING 9580
SWIDTH 600 0
DWIDTH 9 0
BBX 9 14 0 -3
BITMAP
1400
1400
1400
1400
1400
F780
0000
F780
1400
1400
1400
1400
1400
1400
ENDCHAR
STARTCHAR uni2574
ENCODING 9588
SWIDTH 600 0
DWIDTH 9 0
BBX 5 1 0 4
BITMAP
F8
ENDCHAR
STARTCHAR uni2575
ENCODING 9589
SWIDTH 600 0
DWIDTH 9 0
BBX 1 7 4 4
BITMAP
80
80
80
80
80
80
80
ENDCHAR
STARTCHAR uni2576
ENCODING 9590
SWIDTH 600 0
DWIDTH 9 0
BBX 5 1 4 4
BITMAP
F8
ENDCHAR
STARTCHAR uni2577
ENCODING 9591
SWIDTH 600 0
DWIDTH 9 0
BBX 1 8 4 -3
BITMAP
80
80
80
80
80
80
80
80
ENDCHAR
STARTCHAR uni2578
ENCODING 9592
SWIDTH 600 0
DWIDTH 9 0
BBX 6 3 0 3
BITMAP
FC
FC
FC
ENDCHAR
STARTCHAR uni2579
ENCODING 9593
SWIDTH 600 0
DWIDTH 9 0
BBX 3 8 3 3
BITMAP
E0
E0
E0
E0
E0
E0
E0
E0
ENDCHAR
STARTCHAR uni257A
ENCODING 9594
SWIDTH 600 0
DWIDTH 9 0
BBX 6 3 3 3
BITMAP
FC
FC
FC
ENDCHAR
STARTCHAR uni257B
ENCODING 9595
SWIDTH 600 0
DWIDTH 9 0
BBX 3 9 3 -3
BITMAP
E0
E0
E0
E0
E0
E0
E0
E0
E0
ENDCHAR
STARTCHAR uni257C
ENCODING 9596
SWIDTH 600 0
DWIDTH 9 0
BBX 9 3 0 3
BITMAP
1F80
FF80
1F80
ENDCHAR
STARTCHAR uni257D
ENCODING 9597
SWIDTH 600 0
DWIDTH 9 0
BBX 3 14 3 -3
BITMAP
40
40
40
40
40
E0
E0
E0
E0
E0
E0
E0
E0
E0
ENDCHAR
STARTCHAR uni257E
ENCODING 9598
SWIDTH 600 0
DWIDTH 9 0
BBX 9 3 0 3
BITMAP
FC00
FF80
FC00
ENDCHAR
STARTCHAR uni257F
ENCODING 9599
SWIDTH 600 0
DWIDTH 9 0
BBX 3 14 3 -3
BITMAP
E0
E0
E0
E0
E0
E0
E0
E0
40
40
40
40
40
40
ENDCHAR
STARTCHAR upblock
ENCODING 9600
SWIDTH 600 0
DWIDTH 9 0
BBX 9 15 0 -3
BITMAP
FF80
FF80
FF80
FF80
FF80
FF80
FF80
0000
0000
0000
0000
0000
0000
0000
0000
ENDCHAR
STARTCHAR uni2581
ENCODING 9601
SWIDTH 600 0
DWIDTH 9 0
BBX 9 2 0 -3
BITMAP
FF80
FF80
ENDCHAR
STARTCHAR uni2582
ENCODING 9602
SWIDTH 600 0
DWIDTH 9 0
BBX 9 4 0 -3
BITMAP
FF80
FF80
FF80
FF80
ENDCHAR
STARTCHAR uni2583
ENCODING 9603
SWIDTH 600 0
DWIDTH 9 0
BBX 9 6 0 -3
BITMAP
FF80
FF80
FF80
FF80
FF80
FF80
ENDCHAR
STARTCHAR dnblock
ENCODING 9604
SWIDTH 600 0
DWIDTH 9 0
BBX 9 8 0 -3
BITMAP
FF80
FF80
FF80
FF80
FF80
FF80
FF80
FF80
ENDCHAR
STARTCHAR uni2585
ENCODING 9605
SWIDTH 600 0
DWIDTH 9 0
BBX 9 9 0 -3
BITMAP
FF80
FF80
FF80
FF80
FF80
FF80
FF80
FF80
FF80
ENDCHAR
STARTCHAR uni2586
ENCODING 9606
SWIDTH 600 0
DWIDTH 9 0
BBX 9 11 0 -3
BITMAP
FF80
FF80
FF80
FF80
FF80
FF80
FF80
FF80
FF80
FF80
FF80
ENDCHAR
STARTCHAR uni2587
ENCODING 9607
SWIDTH 600 0
DWIDTH 9 0
BBX 9 13 0 -3
BITMAP
FF80
FF80
FF80
FF80
FF80
FF80
FF80
FF80
FF80
FF80
FF80
FF80
FF80
ENDCHAR
STARTCHAR block
ENCODING 9608
SWIDTH 600 0
DWIDTH 9 0
BBX 9 15 0 -3
BITMAP
FF80
FF80
FF80
FF80
FF80
FF80
FF80
FF80
FF80
FF80
FF80
FF80
FF80
FF80
FF80
ENDCHAR
STARTCHAR uni2589
ENCODING 9609
SWIDTH 600 0
DWIDTH 9 0
BBX 8 15 0 -3
BITMAP
FF
FF
FF
FF
FF
FF
FF
FF
FF
FF
FF
FF
FF
FF
FF
ENDCHAR
STARTCHAR uni258A
ENCODING 9610
SWIDTH 600 0
DWIDTH 9 0
BBX 7 15 0 -3
BITMAP
FE
FE
FE
FE
FE
FE
FE
FE
FE
FE
FE
FE
FE
FE
FE
ENDCHAR
STARTCHAR uni258B
ENCODING 9611
SWIDTH 600 0
DWIDTH 9 0
BBX 6 15 0 -3
BITMAP
FC
FC
FC
FC
FC
FC
FC
FC
FC
FC
FC
FC
FC
FC
FC
ENDCHAR
STARTCHAR lfblock
ENCODING 9612
SWIDTH 600 0
DWIDTH 9 0
BBX 5 15 0 -3
BITMAP
F8
F8
F8
F8
F8
F8
F8
F8
F8
F8
F8
F8
F8
F8
F8
ENDCHAR
STARTCHAR uni258D
ENCODING 9613
SWIDTH 600 0
DWIDTH 9 0
BBX 3 15 0 -3
BITMAP
E0
E0
E0
E0
E0
E0
E0
E0
E0
E0
E0
E0
E0
E0
E0
ENDCHAR
STARTCHAR uni258E
ENCODING 9614
SWIDTH 600 0
DWIDTH 9 0
BBX 2 15 0 -3
BITMAP
C0
C0
C0
C0
C0
C0
C0
C0
C0
C0
C0
C0
C0
C0
C0
ENDCHAR
STARTCHAR uni258F
ENCODING 9615
SWIDTH 600 0
DWIDTH 9 0
BBX 1 15 0 -3
BITMAP
80
80
80
80
80
80
80
80
80
80
80
80
80
80
80
ENDCHAR
STARTCHAR rtblock
ENCODING 9616
SWIDTH 600 0
DWIDTH 9 0
BBX 9 15 0 -3
BITMAP
0780
0780
0780
0780
0780
0780
0780
0780
0780
0780
0780
0780
0780
0780
0780
ENDCHAR
STARTCHAR ltshade
ENCODING 9617
SWIDTH 600 0
DWIDTH 9 0
BBX 9 15 0 -3
BITMAP
0000
5500
0000
AA80
0000
5500
0000
AA80
0000
5500
0000
AA80
0000
5500
0000
ENDCHAR
STARTCHAR shade
ENCODING 9618
SWIDTH 600 0
DWIDTH 9 0
BBX 9 15 0 -3
BITMAP
5500
AA80
5500
AA80
5500
AA80
5500
AA80
5500
AA80
5500
AA80
5500
AA80
5500
ENDCHAR
STARTCHAR dkshade
ENCODING 9619
SWIDTH 600 0
DWIDTH 9 0
BBX 9 15 0 -3
BITMAP
FF80
AA80
FF80
5500
FF80
AA80
FF80
5500
FF80
AA80
FF80
5500
FF80
AA80
FF80
ENDCHAR
STARTCHAR uni2594
ENCODING 9620
SWIDTH 600 0
DWIDTH 9 0
BBX 9 15 0 -3
BITMAP
FF80
FF80
0000
0000
0000
0000
0000
0000
0000
0000
0000
0000
0000
0000
0000
ENDCHAR
STARTCHAR uni2595
ENCODING 9621
SWIDTH 600 0
DWIDTH 9 0
BBX 9 15 0 -3
BITMAP
0180
0180
0180
0180
0180
0180
0180
0180
0180
0180
0180
0180
0180
0180
0180
ENDCHAR
STARTCHAR fi
ENCODING -1
SWIDTH 600 0
DWIDTH 9 0
BBX 9 10 0 0
BITMAP
0200
1A00
2000
FE00
2200
2200
2200
2200
2200
F780
ENDCHAR
STARTCHAR fl
ENCODING -1
SWIDTH 600 0
DWIDTH 9 0
BBX 9 9 0 0
BITMAP
1E00
2200
FA00
2200
2200
2200
2200
2200
F780
ENDCHAR
ENDFONT
